<svg width="106" height="42" viewBox="0 0 106 42" fill="none" xmlns="http://www.w3.org/2000/svg">
<path d="M2.88 31.58L0.78 26L21 0.799999L25.26 1.76L25.08 7.82L23.04 6.26L8.58 27.44L5.88 25.7L35.4 24.98L35.64 29.78L33.78 31.58H2.88ZM12 41L11.64 39.02C12.76 38.34 14.12 37.7 15.72 37.1C17.32 36.5 18.8 35.98 20.16 35.54L19.86 41H12ZM24.78 41L24.9 36.38L33.24 37.82L33.06 41H24.78ZM18.78 41V16.94L19.44 8.66L20.76 1.64L28.8 1.76V41H18.78ZM53.452 41.9C50.732 41.9 48.332 41.36 46.252 40.28C44.212 39.16 42.472 37.66 41.032 35.78C39.632 33.9 38.572 31.74 37.852 29.3C37.132 26.86 36.772 24.28 36.772 21.56C36.772 18.64 37.172 15.94 37.972 13.46C38.812 10.98 39.992 8.8 41.512 6.92C43.032 5.04 44.812 3.6 46.852 2.6C48.892 1.56 51.132 1.04 53.572 1.04C56.652 1.04 59.412 1.86 61.852 3.5C64.292 5.1 66.232 7.4 67.672 10.4C69.152 13.4 69.892 16.98 69.892 21.14C69.892 24.06 69.532 26.78 68.812 29.3C68.092 31.78 67.032 33.98 65.632 35.9C64.232 37.78 62.512 39.26 60.472 40.34C58.432 41.38 56.092 41.9 53.452 41.9ZM54.412 36.2C54.932 36.2 55.472 36.1 56.032 35.9C56.752 34.98 57.332 33.78 57.772 32.3C58.252 30.82 58.592 29.18 58.792 27.38C59.032 25.58 59.152 23.78 59.152 21.98C59.152 20.1 59.032 18.26 58.792 16.46C58.552 14.62 58.152 12.96 57.592 11.48C57.072 10 56.392 8.84 55.552 8C54.712 7.12 53.692 6.68 52.492 6.68C52.292 6.68 52.052 6.7 51.772 6.74C51.492 6.78 51.192 6.82 50.872 6.86C50.152 7.7 49.532 8.9 49.012 10.46C48.532 12.02 48.172 13.72 47.932 15.56C47.732 17.4 47.632 19.18 47.632 20.9C47.632 22.62 47.752 24.38 47.992 26.18C48.232 27.94 48.612 29.6 49.132 31.16C49.692 32.68 50.392 33.9 51.232 34.82C52.112 35.74 53.172 36.2 54.412 36.2ZM73.1339 31.58L71.0339 26L91.2539 0.799999L95.5139 1.76L95.3339 7.82L93.2939 6.26L78.8339 27.44L76.1339 25.7L105.654 24.98L105.894 29.78L104.034 31.58H73.1339ZM82.2539 41L81.8939 39.02C83.0139 38.34 84.3739 37.7 85.9739 37.1C87.5739 36.5 89.0539 35.98 90.4139 35.54L90.1139 41H82.2539ZM95.0339 41L95.1539 36.38L103.494 37.82L103.314 41H95.0339ZM89.0339 41V16.94L89.6939 8.66L91.0139 1.64L99.0539 1.76V41H89.0339Z" fill="#BE0A0B"/>
</svg>
