<svg width="26" height="43" viewBox="0 0 26 43" fill="none" xmlns="http://www.w3.org/2000/svg">
<path d="M0.0040894 21.5073C0.00272524 21.5045 0.00136211 21.5017 0 21.4989L0.00104303 21.494L0 21.4891C0.00136211 21.4863 0.0027252 21.4835 0.00408936 21.4807C0.0602803 21.2465 0.289617 20.8528 0.64306 20.3482C0.874475 19.9926 1.12594 19.6555 1.39746 19.3371C3.57819 16.5447 7.68436 12.0877 9.23126 10.4086C9.47816 10.1406 9.65987 9.9434 9.75814 9.83501C10.7338 8.805 18.9328 0.609484 20.2868 0C21.5755 0.628793 22.7327 1.47096 23.7585 2.52649C24.7864 3.54208 25.4464 4.69847 25.7384 5.99567C25.0826 7.68741 17.3297 15.9428 11.5838 21.494C17.3297 27.0452 25.0826 35.3006 25.7384 36.9923C25.4464 38.2895 24.7864 39.4459 23.7585 40.4615C22.7327 41.517 21.5755 42.3592 20.2868 42.988C18.9328 42.3785 10.7338 34.183 9.75814 33.153C9.65987 33.0446 9.47818 32.8474 9.23129 32.5794C7.68441 30.9003 3.57821 26.4433 1.39746 23.6509C1.12594 23.3324 0.874475 22.9954 0.64306 22.6398C0.289617 22.1351 0.0602804 21.7414 0.0040894 21.5073Z" fill="white"/>
</svg>
