<svg width="24" height="25" viewBox="0 0 24 25" fill="none" xmlns="http://www.w3.org/2000/svg">
<path d="M22.5305 0.561218L22.5325 0.566379C22.6129 0.684562 22.6942 0.94251 22.7746 1.29928C22.8384 1.54293 22.8859 1.78796 22.9173 2.03439C23.2726 4.10723 23.5899 7.69042 23.7094 9.04037C23.7285 9.25582 23.7425 9.41445 23.7509 9.50089C23.8135 10.3407 24.1378 17.2144 23.8647 18.0524C23.0739 18.3672 22.2419 18.539 21.3687 18.5679C20.5121 18.6137 19.7407 18.4416 19.0545 18.0518C18.6805 17.3026 18.2777 13.0848 18.0498 9.01703C16.3717 11.1801 13.4299 14.5807 12.1707 16.0363C11.879 16.3735 11.6776 16.6063 11.6031 16.6951C11.0482 17.3286 4.37398 24.5286 3.58494 24.9214C2.80606 24.5782 2.10021 24.1054 1.46739 23.503C0.834237 22.9244 0.416071 22.2537 0.212891 21.491C0.641009 20.2446 9.96675 9.85512 14.0387 5.836C10.1247 5.97488 6.19246 5.96126 5.44276 5.67199C4.98975 5.02566 4.74553 4.27399 4.71008 3.41698C4.65626 2.54495 4.74862 1.70042 4.98717 0.883393C5.79559 0.532225 12.6692 0.204964 13.5111 0.187902C13.598 0.188041 13.7571 0.187021 13.9734 0.185634C15.3286 0.176947 18.9258 0.153885 21.023 0.311483C21.2713 0.319444 21.5197 0.343623 21.7683 0.384021C22.1311 0.430377 22.3956 0.486905 22.5208 0.555738L22.5262 0.557307L22.5279 0.559718L22.5305 0.561218Z" fill="black"/>
</svg>
