<svg width="26" height="43" viewBox="0 0 26 43" fill="none" xmlns="http://www.w3.org/2000/svg">
<path d="M25.7342 21.5073C25.7356 21.5045 25.7369 21.5017 25.7383 21.4989L25.7372 21.494L25.7383 21.4891C25.7369 21.4863 25.7356 21.4835 25.7342 21.4807C25.678 21.2465 25.4487 20.8528 25.0952 20.3482C24.8638 19.9926 24.6123 19.6555 24.3408 19.3371C22.1601 16.5447 18.0539 12.0877 16.507 10.4086C16.2601 10.1406 16.0784 9.9434 15.9801 9.83501C15.0045 8.805 6.80547 0.609484 5.45146 0C4.16282 0.628793 3.00559 1.47096 1.97979 2.52649C0.951893 3.54208 0.29192 4.69847 -0.000116348 5.99567C0.655634 7.68741 8.40861 15.9428 14.1545 21.494C8.40861 27.0452 0.655634 35.3006 -0.000116348 36.9923C0.29192 38.2895 0.951893 39.4459 1.97979 40.4615C3.00559 41.517 4.16282 42.3592 5.45146 42.988C6.80547 42.3785 15.0045 34.183 15.9801 33.153C16.0784 33.0446 16.2601 32.8474 16.507 32.5794C18.0539 30.9003 22.1601 26.4433 24.3408 23.6509C24.6123 23.3324 24.8638 22.9954 25.0952 22.6398C25.4487 22.1351 25.678 21.7414 25.7342 21.5073Z" fill="white"/>
</svg>
