<svg width="21" height="21" viewBox="0 0 21 21" fill="none" xmlns="http://www.w3.org/2000/svg">
<path d="M12.2523 20.0248C11.0839 19.5437 9.77809 18.8221 8.33479 17.8599C6.89149 16.8977 5.48256 15.8324 4.10799 14.664C2.80214 13.4956 1.73685 12.3616 0.912109 11.2619C2.01177 9.06264 3.38634 6.89769 5.03582 4.7671C6.68531 2.63652 8.36915 1.09013 10.0874 0.12793C11.3932 0.677758 12.7334 1.46814 14.108 2.49906C15.5513 3.46126 16.8571 4.52655 18.0255 5.69494C19.2626 6.86332 20.2248 7.92862 20.9121 8.89082C20.1561 10.8839 18.9533 12.9458 17.3039 15.0764C15.7231 17.1382 14.0393 18.7877 12.2523 20.0248Z" fill="#039449"/>
</svg>
