<svg width="31" height="31" viewBox="0 0 31 31" fill="none" xmlns="http://www.w3.org/2000/svg">
<path d="M16.7732 25C15.6632 24.5406 14.4227 23.8515 13.0515 22.9326C11.6804 22.0138 10.3419 20.9965 9.03608 19.8808C7.79553 18.7651 6.78351 17.6822 6 16.6321C7.04467 14.532 8.35052 12.4646 9.91753 10.4301C11.4845 8.39551 13.0842 6.91883 14.7165 6C15.957 6.52504 17.2302 7.27979 18.5361 8.26425C19.9072 9.18307 21.1478 10.2003 22.2577 11.3161C23.433 12.4318 24.3471 13.4491 25 14.3679C24.2818 16.2712 23.1392 18.2401 21.5722 20.2746C20.0704 22.2435 18.4708 23.8187 16.7732 25Z" fill="black"/>
</svg>
