<svg width="185" height="185" viewBox="0 0 185 185" fill="none" xmlns="http://www.w3.org/2000/svg">
<path d="M5.6701 10C5.08589 9.75821 4.433 9.39553 3.71132 8.9119C2.98968 8.42832 2.28521 7.8929 1.59794 7.30568C0.945016 6.71847 0.412374 6.14853 0 5.59584C0.549826 4.49053 1.23712 3.40242 2.06186 2.33163C2.88658 1.2608 3.72853 0.483595 4.58763 0C5.24053 0.276337 5.91063 0.673574 6.59795 1.19171C7.31958 1.6753 7.97253 2.21068 8.55668 2.79795C9.17526 3.38516 9.65637 3.92058 10 4.40416C9.622 5.40589 9.02063 6.44216 8.1959 7.51295C7.40547 8.54921 6.56358 9.37826 5.6701 10Z" fill="#E01617"/>
<path d="M5.6701 35C5.08589 34.7582 4.433 34.3955 3.71132 33.9119C2.98968 33.4283 2.28521 32.8929 1.59794 32.3057C0.945016 31.7185 0.412374 31.1485 0 30.5958C0.549826 29.4905 1.23712 28.4024 2.06186 27.3316C2.88658 26.2608 3.72853 25.4836 4.58763 25C5.24053 25.2763 5.91063 25.6736 6.59795 26.1917C7.31958 26.6753 7.97253 27.2107 8.55668 27.7979C9.17526 28.3852 9.65637 28.9206 10 29.4042C9.622 30.4059 9.02063 31.4422 8.1959 32.5129C7.40547 33.5492 6.56358 34.3783 5.6701 35Z" fill="#E01617"/>
<path d="M5.6701 60C5.08589 59.7582 4.433 59.3955 3.71132 58.9119C2.98968 58.4283 2.28521 57.8929 1.59794 57.3057C0.945016 56.7185 0.412374 56.1485 0 55.5958C0.549826 54.4905 1.23712 53.4024 2.06186 52.3316C2.88658 51.2608 3.72853 50.4836 4.58763 50C5.24053 50.2763 5.91063 50.6736 6.59795 51.1917C7.31958 51.6753 7.97253 52.2107 8.55668 52.7979C9.17526 53.3852 9.65637 53.9206 10 54.4042C9.622 55.4059 9.02063 56.4422 8.1959 57.5129C7.40547 58.5492 6.56358 59.3783 5.6701 60Z" fill="#E01617"/>
<path d="M5.6701 85C5.08589 84.7582 4.433 84.3955 3.71132 83.9119C2.98968 83.4283 2.28521 82.8929 1.59794 82.3057C0.945016 81.7185 0.412374 81.1485 0 80.5958C0.549826 79.4905 1.23712 78.4024 2.06186 77.3316C2.88658 76.2608 3.72853 75.4836 4.58763 75C5.24053 75.2763 5.91063 75.6736 6.59795 76.1917C7.31958 76.6753 7.97253 77.2107 8.55668 77.7979C9.17526 78.3852 9.65637 78.9206 10 79.4042C9.622 80.4059 9.02063 81.4422 8.1959 82.5129C7.40547 83.5492 6.56358 84.3783 5.6701 85Z" fill="#E01617"/>
<path d="M5.6701 110C5.08589 109.758 4.433 109.396 3.71132 108.912C2.98968 108.428 2.28521 107.893 1.59794 107.306C0.945016 106.718 0.412374 106.149 0 105.596C0.549826 104.491 1.23712 103.402 2.06186 102.332C2.88658 101.261 3.72853 100.484 4.58763 100C5.24053 100.276 5.91063 100.674 6.59795 101.192C7.31958 101.675 7.97253 102.211 8.55668 102.798C9.17526 103.385 9.65637 103.921 10 104.404C9.622 105.406 9.02063 106.442 8.1959 107.513C7.40547 108.549 6.56358 109.378 5.6701 110Z" fill="#E01617"/>
<path d="M5.6701 135C5.08589 134.758 4.433 134.396 3.71132 133.912C2.98968 133.428 2.28521 132.893 1.59794 132.306C0.945016 131.718 0.412374 131.149 0 130.596C0.549826 129.491 1.23712 128.402 2.06186 127.332C2.88658 126.261 3.72853 125.484 4.58763 125C5.24053 125.276 5.91063 125.674 6.59795 126.192C7.31958 126.675 7.97253 127.211 8.55668 127.798C9.17526 128.385 9.65637 128.921 10 129.404C9.622 130.406 9.02063 131.442 8.1959 132.513C7.40547 133.549 6.56358 134.378 5.6701 135Z" fill="#E01617"/>
<path d="M5.6701 160C5.08589 159.758 4.433 159.396 3.71132 158.912C2.98968 158.428 2.28521 157.893 1.59794 157.306C0.945016 156.718 0.412374 156.149 0 155.596C0.549826 154.491 1.23712 153.402 2.06186 152.332C2.88658 151.261 3.72853 150.484 4.58763 150C5.24053 150.276 5.91063 150.674 6.59795 151.192C7.31958 151.675 7.97253 152.211 8.55668 152.798C9.17526 153.385 9.65637 153.921 10 154.404C9.622 155.406 9.02063 156.442 8.1959 157.513C7.40547 158.549 6.56358 159.378 5.6701 160Z" fill="#E01617"/>
<path d="M5.6701 185C5.08589 184.758 4.433 184.396 3.71132 183.912C2.98968 183.428 2.28521 182.893 1.59794 182.306C0.945016 181.718 0.412374 181.149 0 180.596C0.549826 179.491 1.23712 178.402 2.06186 177.332C2.88658 176.261 3.72853 175.484 4.58763 175C5.24053 175.276 5.91063 175.674 6.59795 176.192C7.31958 176.675 7.97253 177.211 8.55668 177.798C9.17526 178.385 9.65637 178.921 10 179.404C9.622 180.406 9.02063 181.442 8.1959 182.513C7.40547 183.549 6.56358 184.378 5.6701 185Z" fill="#E01617"/>
<path d="M30.6701 10C30.0859 9.75821 29.433 9.39553 28.7113 8.9119C27.9897 8.42832 27.2852 7.8929 26.5979 7.30568C25.945 6.71847 25.4124 6.14853 25 5.59584C25.5498 4.49053 26.2371 3.40242 27.0619 2.33163C27.8866 1.2608 28.7285 0.483595 29.5876 0C30.2405 0.276337 30.9106 0.673574 31.5979 1.19171C32.3196 1.6753 32.9725 2.21068 33.5567 2.79795C34.1753 3.38516 34.6564 3.92058 35 4.40416C34.622 5.40589 34.0206 6.44216 33.1959 7.51295C32.4055 8.54921 31.5636 9.37826 30.6701 10Z" fill="#E01617"/>
<path d="M30.6701 35C30.0859 34.7582 29.433 34.3955 28.7113 33.9119C27.9897 33.4283 27.2852 32.8929 26.5979 32.3057C25.945 31.7185 25.4124 31.1485 25 30.5958C25.5498 29.4905 26.2371 28.4024 27.0619 27.3316C27.8866 26.2608 28.7285 25.4836 29.5876 25C30.2405 25.2763 30.9106 25.6736 31.5979 26.1917C32.3196 26.6753 32.9725 27.2107 33.5567 27.7979C34.1753 28.3852 34.6564 28.9206 35 29.4042C34.622 30.4059 34.0206 31.4422 33.1959 32.5129C32.4055 33.5492 31.5636 34.3783 30.6701 35Z" fill="#E01617"/>
<path d="M30.6701 60C30.0859 59.7582 29.433 59.3955 28.7113 58.9119C27.9897 58.4283 27.2852 57.8929 26.5979 57.3057C25.945 56.7185 25.4124 56.1485 25 55.5958C25.5498 54.4905 26.2371 53.4024 27.0619 52.3316C27.8866 51.2608 28.7285 50.4836 29.5876 50C30.2405 50.2763 30.9106 50.6736 31.5979 51.1917C32.3196 51.6753 32.9725 52.2107 33.5567 52.7979C34.1753 53.3852 34.6564 53.9206 35 54.4042C34.622 55.4059 34.0206 56.4422 33.1959 57.5129C32.4055 58.5492 31.5636 59.3783 30.6701 60Z" fill="#E01617"/>
<path d="M30.6701 85C30.0859 84.7582 29.433 84.3955 28.7113 83.9119C27.9897 83.4283 27.2852 82.8929 26.5979 82.3057C25.945 81.7185 25.4124 81.1485 25 80.5958C25.5498 79.4905 26.2371 78.4024 27.0619 77.3316C27.8866 76.2608 28.7285 75.4836 29.5876 75C30.2405 75.2763 30.9106 75.6736 31.5979 76.1917C32.3196 76.6753 32.9725 77.2107 33.5567 77.7979C34.1753 78.3852 34.6564 78.9206 35 79.4042C34.622 80.4059 34.0206 81.4422 33.1959 82.5129C32.4055 83.5492 31.5636 84.3783 30.6701 85Z" fill="#E01617"/>
<path d="M30.6701 110C30.0859 109.758 29.433 109.396 28.7113 108.912C27.9897 108.428 27.2852 107.893 26.5979 107.306C25.945 106.718 25.4124 106.149 25 105.596C25.5498 104.491 26.2371 103.402 27.0619 102.332C27.8866 101.261 28.7285 100.484 29.5876 100C30.2405 100.276 30.9106 100.674 31.5979 101.192C32.3196 101.675 32.9725 102.211 33.5567 102.798C34.1753 103.385 34.6564 103.921 35 104.404C34.622 105.406 34.0206 106.442 33.1959 107.513C32.4055 108.549 31.5636 109.378 30.6701 110Z" fill="#E01617"/>
<path d="M30.6701 135C30.0859 134.758 29.433 134.396 28.7113 133.912C27.9897 133.428 27.2852 132.893 26.5979 132.306C25.945 131.718 25.4124 131.149 25 130.596C25.5498 129.491 26.2371 128.402 27.0619 127.332C27.8866 126.261 28.7285 125.484 29.5876 125C30.2405 125.276 30.9106 125.674 31.5979 126.192C32.3196 126.675 32.9725 127.211 33.5567 127.798C34.1753 128.385 34.6564 128.921 35 129.404C34.622 130.406 34.0206 131.442 33.1959 132.513C32.4055 133.549 31.5636 134.378 30.6701 135Z" fill="#E01617"/>
<path d="M30.6701 160C30.0859 159.758 29.433 159.396 28.7113 158.912C27.9897 158.428 27.2852 157.893 26.5979 157.306C25.945 156.718 25.4124 156.149 25 155.596C25.5498 154.491 26.2371 153.402 27.0619 152.332C27.8866 151.261 28.7285 150.484 29.5876 150C30.2405 150.276 30.9106 150.674 31.5979 151.192C32.3196 151.675 32.9725 152.211 33.5567 152.798C34.1753 153.385 34.6564 153.921 35 154.404C34.622 155.406 34.0206 156.442 33.1959 157.513C32.4055 158.549 31.5636 159.378 30.6701 160Z" fill="#E01617"/>
<path d="M30.6701 185C30.0859 184.758 29.433 184.396 28.7113 183.912C27.9897 183.428 27.2852 182.893 26.5979 182.306C25.945 181.718 25.4124 181.149 25 180.596C25.5498 179.491 26.2371 178.402 27.0619 177.332C27.8866 176.261 28.7285 175.484 29.5876 175C30.2405 175.276 30.9106 175.674 31.5979 176.192C32.3196 176.675 32.9725 177.211 33.5567 177.798C34.1753 178.385 34.6564 178.921 35 179.404C34.622 180.406 34.0206 181.442 33.1959 182.513C32.4055 183.549 31.5636 184.378 30.6701 185Z" fill="#E01617"/>
<path d="M55.6701 10C55.0859 9.75821 54.433 9.39553 53.7113 8.9119C52.9897 8.42832 52.2852 7.8929 51.5979 7.30568C50.945 6.71847 50.4124 6.14853 50 5.59584C50.5498 4.49053 51.2371 3.40242 52.0619 2.33163C52.8866 1.2608 53.7285 0.483595 54.5876 0C55.2405 0.276337 55.9106 0.673574 56.5979 1.19171C57.3196 1.6753 57.9725 2.21068 58.5567 2.79795C59.1753 3.38516 59.6564 3.92058 60 4.40416C59.622 5.40589 59.0206 6.44216 58.1959 7.51295C57.4055 8.54921 56.5636 9.37826 55.6701 10Z" fill="#E01617"/>
<path d="M55.6701 35C55.0859 34.7582 54.433 34.3955 53.7113 33.9119C52.9897 33.4283 52.2852 32.8929 51.5979 32.3057C50.945 31.7185 50.4124 31.1485 50 30.5958C50.5498 29.4905 51.2371 28.4024 52.0619 27.3316C52.8866 26.2608 53.7285 25.4836 54.5876 25C55.2405 25.2763 55.9106 25.6736 56.5979 26.1917C57.3196 26.6753 57.9725 27.2107 58.5567 27.7979C59.1753 28.3852 59.6564 28.9206 60 29.4042C59.622 30.4059 59.0206 31.4422 58.1959 32.5129C57.4055 33.5492 56.5636 34.3783 55.6701 35Z" fill="#E01617"/>
<path d="M55.6701 60C55.0859 59.7582 54.433 59.3955 53.7113 58.9119C52.9897 58.4283 52.2852 57.8929 51.5979 57.3057C50.945 56.7185 50.4124 56.1485 50 55.5958C50.5498 54.4905 51.2371 53.4024 52.0619 52.3316C52.8866 51.2608 53.7285 50.4836 54.5876 50C55.2405 50.2763 55.9106 50.6736 56.5979 51.1917C57.3196 51.6753 57.9725 52.2107 58.5567 52.7979C59.1753 53.3852 59.6564 53.9206 60 54.4042C59.622 55.4059 59.0206 56.4422 58.1959 57.5129C57.4055 58.5492 56.5636 59.3783 55.6701 60Z" fill="#E01617"/>
<path d="M55.6701 85C55.0859 84.7582 54.433 84.3955 53.7113 83.9119C52.9897 83.4283 52.2852 82.8929 51.5979 82.3057C50.945 81.7185 50.4124 81.1485 50 80.5958C50.5498 79.4905 51.2371 78.4024 52.0619 77.3316C52.8866 76.2608 53.7285 75.4836 54.5876 75C55.2405 75.2763 55.9106 75.6736 56.5979 76.1917C57.3196 76.6753 57.9725 77.2107 58.5567 77.7979C59.1753 78.3852 59.6564 78.9206 60 79.4042C59.622 80.4059 59.0206 81.4422 58.1959 82.5129C57.4055 83.5492 56.5636 84.3783 55.6701 85Z" fill="#E01617"/>
<path d="M55.6701 110C55.0859 109.758 54.433 109.396 53.7113 108.912C52.9897 108.428 52.2852 107.893 51.5979 107.306C50.945 106.718 50.4124 106.149 50 105.596C50.5498 104.491 51.2371 103.402 52.0619 102.332C52.8866 101.261 53.7285 100.484 54.5876 100C55.2405 100.276 55.9106 100.674 56.5979 101.192C57.3196 101.675 57.9725 102.211 58.5567 102.798C59.1753 103.385 59.6564 103.921 60 104.404C59.622 105.406 59.0206 106.442 58.1959 107.513C57.4055 108.549 56.5636 109.378 55.6701 110Z" fill="#E01617"/>
<path d="M55.6701 135C55.0859 134.758 54.433 134.396 53.7113 133.912C52.9897 133.428 52.2852 132.893 51.5979 132.306C50.945 131.718 50.4124 131.149 50 130.596C50.5498 129.491 51.2371 128.402 52.0619 127.332C52.8866 126.261 53.7285 125.484 54.5876 125C55.2405 125.276 55.9106 125.674 56.5979 126.192C57.3196 126.675 57.9725 127.211 58.5567 127.798C59.1753 128.385 59.6564 128.921 60 129.404C59.622 130.406 59.0206 131.442 58.1959 132.513C57.4055 133.549 56.5636 134.378 55.6701 135Z" fill="#E01617"/>
<path d="M55.6701 160C55.0859 159.758 54.433 159.396 53.7113 158.912C52.9897 158.428 52.2852 157.893 51.5979 157.306C50.945 156.718 50.4124 156.149 50 155.596C50.5498 154.491 51.2371 153.402 52.0619 152.332C52.8866 151.261 53.7285 150.484 54.5876 150C55.2405 150.276 55.9106 150.674 56.5979 151.192C57.3196 151.675 57.9725 152.211 58.5567 152.798C59.1753 153.385 59.6564 153.921 60 154.404C59.622 155.406 59.0206 156.442 58.1959 157.513C57.4055 158.549 56.5636 159.378 55.6701 160Z" fill="#E01617"/>
<path d="M55.6701 185C55.0859 184.758 54.433 184.396 53.7113 183.912C52.9897 183.428 52.2852 182.893 51.5979 182.306C50.945 181.718 50.4124 181.149 50 180.596C50.5498 179.491 51.2371 178.402 52.0619 177.332C52.8866 176.261 53.7285 175.484 54.5876 175C55.2405 175.276 55.9106 175.674 56.5979 176.192C57.3196 176.675 57.9725 177.211 58.5567 177.798C59.1753 178.385 59.6564 178.921 60 179.404C59.622 180.406 59.0206 181.442 58.1959 182.513C57.4055 183.549 56.5636 184.378 55.6701 185Z" fill="#E01617"/>
<path d="M80.6701 10C80.0859 9.75821 79.433 9.39553 78.7113 8.9119C77.9897 8.42832 77.2852 7.8929 76.5979 7.30568C75.945 6.71847 75.4124 6.14853 75 5.59584C75.5498 4.49053 76.2371 3.40242 77.0619 2.33163C77.8866 1.2608 78.7285 0.483595 79.5876 0C80.2405 0.276337 80.9106 0.673574 81.5979 1.19171C82.3196 1.6753 82.9725 2.21068 83.5567 2.79795C84.1753 3.38516 84.6564 3.92058 85 4.40416C84.622 5.40589 84.0206 6.44216 83.1959 7.51295C82.4055 8.54921 81.5636 9.37826 80.6701 10Z" fill="#E01617"/>
<path d="M80.6701 35C80.0859 34.7582 79.433 34.3955 78.7113 33.9119C77.9897 33.4283 77.2852 32.8929 76.5979 32.3057C75.945 31.7185 75.4124 31.1485 75 30.5958C75.5498 29.4905 76.2371 28.4024 77.0619 27.3316C77.8866 26.2608 78.7285 25.4836 79.5876 25C80.2405 25.2763 80.9106 25.6736 81.5979 26.1917C82.3196 26.6753 82.9725 27.2107 83.5567 27.7979C84.1753 28.3852 84.6564 28.9206 85 29.4042C84.622 30.4059 84.0206 31.4422 83.1959 32.5129C82.4055 33.5492 81.5636 34.3783 80.6701 35Z" fill="#E01617"/>
<path d="M80.6701 60C80.0859 59.7582 79.433 59.3955 78.7113 58.9119C77.9897 58.4283 77.2852 57.8929 76.5979 57.3057C75.945 56.7185 75.4124 56.1485 75 55.5958C75.5498 54.4905 76.2371 53.4024 77.0619 52.3316C77.8866 51.2608 78.7285 50.4836 79.5876 50C80.2405 50.2763 80.9106 50.6736 81.5979 51.1917C82.3196 51.6753 82.9725 52.2107 83.5567 52.7979C84.1753 53.3852 84.6564 53.9206 85 54.4042C84.622 55.4059 84.0206 56.4422 83.1959 57.5129C82.4055 58.5492 81.5636 59.3783 80.6701 60Z" fill="#E01617"/>
<path d="M80.6701 85C80.0859 84.7582 79.433 84.3955 78.7113 83.9119C77.9897 83.4283 77.2852 82.8929 76.5979 82.3057C75.945 81.7185 75.4124 81.1485 75 80.5958C75.5498 79.4905 76.2371 78.4024 77.0619 77.3316C77.8866 76.2608 78.7285 75.4836 79.5876 75C80.2405 75.2763 80.9106 75.6736 81.5979 76.1917C82.3196 76.6753 82.9725 77.2107 83.5567 77.7979C84.1753 78.3852 84.6564 78.9206 85 79.4042C84.622 80.4059 84.0206 81.4422 83.1959 82.5129C82.4055 83.5492 81.5636 84.3783 80.6701 85Z" fill="#E01617"/>
<path d="M80.6701 110C80.0859 109.758 79.433 109.396 78.7113 108.912C77.9897 108.428 77.2852 107.893 76.5979 107.306C75.945 106.718 75.4124 106.149 75 105.596C75.5498 104.491 76.2371 103.402 77.0619 102.332C77.8866 101.261 78.7285 100.484 79.5876 100C80.2405 100.276 80.9106 100.674 81.5979 101.192C82.3196 101.675 82.9725 102.211 83.5567 102.798C84.1753 103.385 84.6564 103.921 85 104.404C84.622 105.406 84.0206 106.442 83.1959 107.513C82.4055 108.549 81.5636 109.378 80.6701 110Z" fill="#E01617"/>
<path d="M80.6701 135C80.0859 134.758 79.433 134.396 78.7113 133.912C77.9897 133.428 77.2852 132.893 76.5979 132.306C75.945 131.718 75.4124 131.149 75 130.596C75.5498 129.491 76.2371 128.402 77.0619 127.332C77.8866 126.261 78.7285 125.484 79.5876 125C80.2405 125.276 80.9106 125.674 81.5979 126.192C82.3196 126.675 82.9725 127.211 83.5567 127.798C84.1753 128.385 84.6564 128.921 85 129.404C84.622 130.406 84.0206 131.442 83.1959 132.513C82.4055 133.549 81.5636 134.378 80.6701 135Z" fill="#E01617"/>
<path d="M80.6701 160C80.0859 159.758 79.433 159.396 78.7113 158.912C77.9897 158.428 77.2852 157.893 76.5979 157.306C75.945 156.718 75.4124 156.149 75 155.596C75.5498 154.491 76.2371 153.402 77.0619 152.332C77.8866 151.261 78.7285 150.484 79.5876 150C80.2405 150.276 80.9106 150.674 81.5979 151.192C82.3196 151.675 82.9725 152.211 83.5567 152.798C84.1753 153.385 84.6564 153.921 85 154.404C84.622 155.406 84.0206 156.442 83.1959 157.513C82.4055 158.549 81.5636 159.378 80.6701 160Z" fill="#E01617"/>
<path d="M80.6701 185C80.0859 184.758 79.433 184.396 78.7113 183.912C77.9897 183.428 77.2852 182.893 76.5979 182.306C75.945 181.718 75.4124 181.149 75 180.596C75.5498 179.491 76.2371 178.402 77.0619 177.332C77.8866 176.261 78.7285 175.484 79.5876 175C80.2405 175.276 80.9106 175.674 81.5979 176.192C82.3196 176.675 82.9725 177.211 83.5567 177.798C84.1753 178.385 84.6564 178.921 85 179.404C84.622 180.406 84.0206 181.442 83.1959 182.513C82.4055 183.549 81.5636 184.378 80.6701 185Z" fill="#E01617"/>
<path d="M105.67 10C105.086 9.75821 104.433 9.39553 103.711 8.9119C102.99 8.42832 102.285 7.8929 101.598 7.30568C100.945 6.71847 100.412 6.14853 100 5.59584C100.55 4.49053 101.237 3.40242 102.062 2.33163C102.887 1.2608 103.729 0.483595 104.588 0C105.241 0.276337 105.911 0.673574 106.598 1.19171C107.32 1.6753 107.973 2.21068 108.557 2.79795C109.175 3.38516 109.656 3.92058 110 4.40416C109.622 5.40589 109.021 6.44216 108.196 7.51295C107.405 8.54921 106.564 9.37826 105.67 10Z" fill="#E01617"/>
<path d="M105.67 35C105.086 34.7582 104.433 34.3955 103.711 33.9119C102.99 33.4283 102.285 32.8929 101.598 32.3057C100.945 31.7185 100.412 31.1485 100 30.5958C100.55 29.4905 101.237 28.4024 102.062 27.3316C102.887 26.2608 103.729 25.4836 104.588 25C105.241 25.2763 105.911 25.6736 106.598 26.1917C107.32 26.6753 107.973 27.2107 108.557 27.7979C109.175 28.3852 109.656 28.9206 110 29.4042C109.622 30.4059 109.021 31.4422 108.196 32.5129C107.405 33.5492 106.564 34.3783 105.67 35Z" fill="#E01617"/>
<path d="M105.67 60C105.086 59.7582 104.433 59.3955 103.711 58.9119C102.99 58.4283 102.285 57.8929 101.598 57.3057C100.945 56.7185 100.412 56.1485 100 55.5958C100.55 54.4905 101.237 53.4024 102.062 52.3316C102.887 51.2608 103.729 50.4836 104.588 50C105.241 50.2763 105.911 50.6736 106.598 51.1917C107.32 51.6753 107.973 52.2107 108.557 52.7979C109.175 53.3852 109.656 53.9206 110 54.4042C109.622 55.4059 109.021 56.4422 108.196 57.5129C107.405 58.5492 106.564 59.3783 105.67 60Z" fill="#E01617"/>
<path d="M105.67 85C105.086 84.7582 104.433 84.3955 103.711 83.9119C102.99 83.4283 102.285 82.8929 101.598 82.3057C100.945 81.7185 100.412 81.1485 100 80.5958C100.55 79.4905 101.237 78.4024 102.062 77.3316C102.887 76.2608 103.729 75.4836 104.588 75C105.241 75.2763 105.911 75.6736 106.598 76.1917C107.32 76.6753 107.973 77.2107 108.557 77.7979C109.175 78.3852 109.656 78.9206 110 79.4042C109.622 80.4059 109.021 81.4422 108.196 82.5129C107.405 83.5492 106.564 84.3783 105.67 85Z" fill="#E01617"/>
<path d="M105.67 110C105.086 109.758 104.433 109.396 103.711 108.912C102.99 108.428 102.285 107.893 101.598 107.306C100.945 106.718 100.412 106.149 100 105.596C100.55 104.491 101.237 103.402 102.062 102.332C102.887 101.261 103.729 100.484 104.588 100C105.241 100.276 105.911 100.674 106.598 101.192C107.32 101.675 107.973 102.211 108.557 102.798C109.175 103.385 109.656 103.921 110 104.404C109.622 105.406 109.021 106.442 108.196 107.513C107.405 108.549 106.564 109.378 105.67 110Z" fill="#E01617"/>
<path d="M105.67 135C105.086 134.758 104.433 134.396 103.711 133.912C102.99 133.428 102.285 132.893 101.598 132.306C100.945 131.718 100.412 131.149 100 130.596C100.55 129.491 101.237 128.402 102.062 127.332C102.887 126.261 103.729 125.484 104.588 125C105.241 125.276 105.911 125.674 106.598 126.192C107.32 126.675 107.973 127.211 108.557 127.798C109.175 128.385 109.656 128.921 110 129.404C109.622 130.406 109.021 131.442 108.196 132.513C107.405 133.549 106.564 134.378 105.67 135Z" fill="#E01617"/>
<path d="M105.67 160C105.086 159.758 104.433 159.396 103.711 158.912C102.99 158.428 102.285 157.893 101.598 157.306C100.945 156.718 100.412 156.149 100 155.596C100.55 154.491 101.237 153.402 102.062 152.332C102.887 151.261 103.729 150.484 104.588 150C105.241 150.276 105.911 150.674 106.598 151.192C107.32 151.675 107.973 152.211 108.557 152.798C109.175 153.385 109.656 153.921 110 154.404C109.622 155.406 109.021 156.442 108.196 157.513C107.405 158.549 106.564 159.378 105.67 160Z" fill="#E01617"/>
<path d="M105.67 185C105.086 184.758 104.433 184.396 103.711 183.912C102.99 183.428 102.285 182.893 101.598 182.306C100.945 181.718 100.412 181.149 100 180.596C100.55 179.491 101.237 178.402 102.062 177.332C102.887 176.261 103.729 175.484 104.588 175C105.241 175.276 105.911 175.674 106.598 176.192C107.32 176.675 107.973 177.211 108.557 177.798C109.175 178.385 109.656 178.921 110 179.404C109.622 180.406 109.021 181.442 108.196 182.513C107.405 183.549 106.564 184.378 105.67 185Z" fill="#E01617"/>
<path d="M130.67 10C130.086 9.75821 129.433 9.39553 128.711 8.9119C127.99 8.42832 127.285 7.8929 126.598 7.30568C125.945 6.71847 125.412 6.14853 125 5.59584C125.55 4.49053 126.237 3.40242 127.062 2.33163C127.887 1.2608 128.729 0.483595 129.588 0C130.241 0.276337 130.911 0.673574 131.598 1.19171C132.32 1.6753 132.973 2.21068 133.557 2.79795C134.175 3.38516 134.656 3.92058 135 4.40416C134.622 5.40589 134.021 6.44216 133.196 7.51295C132.405 8.54921 131.564 9.37826 130.67 10Z" fill="#E01617"/>
<path d="M130.67 35C130.086 34.7582 129.433 34.3955 128.711 33.9119C127.99 33.4283 127.285 32.8929 126.598 32.3057C125.945 31.7185 125.412 31.1485 125 30.5958C125.55 29.4905 126.237 28.4024 127.062 27.3316C127.887 26.2608 128.729 25.4836 129.588 25C130.241 25.2763 130.911 25.6736 131.598 26.1917C132.32 26.6753 132.973 27.2107 133.557 27.7979C134.175 28.3852 134.656 28.9206 135 29.4042C134.622 30.4059 134.021 31.4422 133.196 32.5129C132.405 33.5492 131.564 34.3783 130.67 35Z" fill="#E01617"/>
<path d="M130.67 60C130.086 59.7582 129.433 59.3955 128.711 58.9119C127.99 58.4283 127.285 57.8929 126.598 57.3057C125.945 56.7185 125.412 56.1485 125 55.5958C125.55 54.4905 126.237 53.4024 127.062 52.3316C127.887 51.2608 128.729 50.4836 129.588 50C130.241 50.2763 130.911 50.6736 131.598 51.1917C132.32 51.6753 132.973 52.2107 133.557 52.7979C134.175 53.3852 134.656 53.9206 135 54.4042C134.622 55.4059 134.021 56.4422 133.196 57.5129C132.405 58.5492 131.564 59.3783 130.67 60Z" fill="#E01617"/>
<path d="M130.67 85C130.086 84.7582 129.433 84.3955 128.711 83.9119C127.99 83.4283 127.285 82.8929 126.598 82.3057C125.945 81.7185 125.412 81.1485 125 80.5958C125.55 79.4905 126.237 78.4024 127.062 77.3316C127.887 76.2608 128.729 75.4836 129.588 75C130.241 75.2763 130.911 75.6736 131.598 76.1917C132.32 76.6753 132.973 77.2107 133.557 77.7979C134.175 78.3852 134.656 78.9206 135 79.4042C134.622 80.4059 134.021 81.4422 133.196 82.5129C132.405 83.5492 131.564 84.3783 130.67 85Z" fill="#E01617"/>
<path d="M130.67 110C130.086 109.758 129.433 109.396 128.711 108.912C127.99 108.428 127.285 107.893 126.598 107.306C125.945 106.718 125.412 106.149 125 105.596C125.55 104.491 126.237 103.402 127.062 102.332C127.887 101.261 128.729 100.484 129.588 100C130.241 100.276 130.911 100.674 131.598 101.192C132.32 101.675 132.973 102.211 133.557 102.798C134.175 103.385 134.656 103.921 135 104.404C134.622 105.406 134.021 106.442 133.196 107.513C132.405 108.549 131.564 109.378 130.67 110Z" fill="#E01617"/>
<path d="M130.67 135C130.086 134.758 129.433 134.396 128.711 133.912C127.99 133.428 127.285 132.893 126.598 132.306C125.945 131.718 125.412 131.149 125 130.596C125.55 129.491 126.237 128.402 127.062 127.332C127.887 126.261 128.729 125.484 129.588 125C130.241 125.276 130.911 125.674 131.598 126.192C132.32 126.675 132.973 127.211 133.557 127.798C134.175 128.385 134.656 128.921 135 129.404C134.622 130.406 134.021 131.442 133.196 132.513C132.405 133.549 131.564 134.378 130.67 135Z" fill="#E01617"/>
<path d="M130.67 160C130.086 159.758 129.433 159.396 128.711 158.912C127.99 158.428 127.285 157.893 126.598 157.306C125.945 156.718 125.412 156.149 125 155.596C125.55 154.491 126.237 153.402 127.062 152.332C127.887 151.261 128.729 150.484 129.588 150C130.241 150.276 130.911 150.674 131.598 151.192C132.32 151.675 132.973 152.211 133.557 152.798C134.175 153.385 134.656 153.921 135 154.404C134.622 155.406 134.021 156.442 133.196 157.513C132.405 158.549 131.564 159.378 130.67 160Z" fill="#E01617"/>
<path d="M130.67 185C130.086 184.758 129.433 184.396 128.711 183.912C127.99 183.428 127.285 182.893 126.598 182.306C125.945 181.718 125.412 181.149 125 180.596C125.55 179.491 126.237 178.402 127.062 177.332C127.887 176.261 128.729 175.484 129.588 175C130.241 175.276 130.911 175.674 131.598 176.192C132.32 176.675 132.973 177.211 133.557 177.798C134.175 178.385 134.656 178.921 135 179.404C134.622 180.406 134.021 181.442 133.196 182.513C132.405 183.549 131.564 184.378 130.67 185Z" fill="#E01617"/>
<path d="M155.67 10C155.086 9.75821 154.433 9.39553 153.711 8.9119C152.99 8.42832 152.285 7.8929 151.598 7.30568C150.945 6.71847 150.412 6.14853 150 5.59584C150.55 4.49053 151.237 3.40242 152.062 2.33163C152.887 1.2608 153.729 0.483595 154.588 0C155.241 0.276337 155.911 0.673574 156.598 1.19171C157.32 1.6753 157.973 2.21068 158.557 2.79795C159.175 3.38516 159.656 3.92058 160 4.40416C159.622 5.40589 159.021 6.44216 158.196 7.51295C157.405 8.54921 156.564 9.37826 155.67 10Z" fill="#E01617"/>
<path d="M155.67 35C155.086 34.7582 154.433 34.3955 153.711 33.9119C152.99 33.4283 152.285 32.8929 151.598 32.3057C150.945 31.7185 150.412 31.1485 150 30.5958C150.55 29.4905 151.237 28.4024 152.062 27.3316C152.887 26.2608 153.729 25.4836 154.588 25C155.241 25.2763 155.911 25.6736 156.598 26.1917C157.32 26.6753 157.973 27.2107 158.557 27.7979C159.175 28.3852 159.656 28.9206 160 29.4042C159.622 30.4059 159.021 31.4422 158.196 32.5129C157.405 33.5492 156.564 34.3783 155.67 35Z" fill="#E01617"/>
<path d="M155.67 60C155.086 59.7582 154.433 59.3955 153.711 58.9119C152.99 58.4283 152.285 57.8929 151.598 57.3057C150.945 56.7185 150.412 56.1485 150 55.5958C150.55 54.4905 151.237 53.4024 152.062 52.3316C152.887 51.2608 153.729 50.4836 154.588 50C155.241 50.2763 155.911 50.6736 156.598 51.1917C157.32 51.6753 157.973 52.2107 158.557 52.7979C159.175 53.3852 159.656 53.9206 160 54.4042C159.622 55.4059 159.021 56.4422 158.196 57.5129C157.405 58.5492 156.564 59.3783 155.67 60Z" fill="#E01617"/>
<path d="M155.67 85C155.086 84.7582 154.433 84.3955 153.711 83.9119C152.99 83.4283 152.285 82.8929 151.598 82.3057C150.945 81.7185 150.412 81.1485 150 80.5958C150.55 79.4905 151.237 78.4024 152.062 77.3316C152.887 76.2608 153.729 75.4836 154.588 75C155.241 75.2763 155.911 75.6736 156.598 76.1917C157.32 76.6753 157.973 77.2107 158.557 77.7979C159.175 78.3852 159.656 78.9206 160 79.4042C159.622 80.4059 159.021 81.4422 158.196 82.5129C157.405 83.5492 156.564 84.3783 155.67 85Z" fill="#E01617"/>
<path d="M155.67 110C155.086 109.758 154.433 109.396 153.711 108.912C152.99 108.428 152.285 107.893 151.598 107.306C150.945 106.718 150.412 106.149 150 105.596C150.55 104.491 151.237 103.402 152.062 102.332C152.887 101.261 153.729 100.484 154.588 100C155.241 100.276 155.911 100.674 156.598 101.192C157.32 101.675 157.973 102.211 158.557 102.798C159.175 103.385 159.656 103.921 160 104.404C159.622 105.406 159.021 106.442 158.196 107.513C157.405 108.549 156.564 109.378 155.67 110Z" fill="#E01617"/>
<path d="M155.67 135C155.086 134.758 154.433 134.396 153.711 133.912C152.99 133.428 152.285 132.893 151.598 132.306C150.945 131.718 150.412 131.149 150 130.596C150.55 129.491 151.237 128.402 152.062 127.332C152.887 126.261 153.729 125.484 154.588 125C155.241 125.276 155.911 125.674 156.598 126.192C157.32 126.675 157.973 127.211 158.557 127.798C159.175 128.385 159.656 128.921 160 129.404C159.622 130.406 159.021 131.442 158.196 132.513C157.405 133.549 156.564 134.378 155.67 135Z" fill="#E01617"/>
<path d="M155.67 160C155.086 159.758 154.433 159.396 153.711 158.912C152.99 158.428 152.285 157.893 151.598 157.306C150.945 156.718 150.412 156.149 150 155.596C150.55 154.491 151.237 153.402 152.062 152.332C152.887 151.261 153.729 150.484 154.588 150C155.241 150.276 155.911 150.674 156.598 151.192C157.32 151.675 157.973 152.211 158.557 152.798C159.175 153.385 159.656 153.921 160 154.404C159.622 155.406 159.021 156.442 158.196 157.513C157.405 158.549 156.564 159.378 155.67 160Z" fill="#E01617"/>
<path d="M155.67 185C155.086 184.758 154.433 184.396 153.711 183.912C152.99 183.428 152.285 182.893 151.598 182.306C150.945 181.718 150.412 181.149 150 180.596C150.55 179.491 151.237 178.402 152.062 177.332C152.887 176.261 153.729 175.484 154.588 175C155.241 175.276 155.911 175.674 156.598 176.192C157.32 176.675 157.973 177.211 158.557 177.798C159.175 178.385 159.656 178.921 160 179.404C159.622 180.406 159.021 181.442 158.196 182.513C157.405 183.549 156.564 184.378 155.67 185Z" fill="#E01617"/>
<path d="M180.67 10C180.086 9.75821 179.433 9.39553 178.711 8.9119C177.99 8.42832 177.285 7.8929 176.598 7.30568C175.945 6.71847 175.412 6.14853 175 5.59584C175.55 4.49053 176.237 3.40242 177.062 2.33163C177.887 1.2608 178.729 0.483595 179.588 0C180.241 0.276337 180.911 0.673574 181.598 1.19171C182.32 1.6753 182.973 2.21068 183.557 2.79795C184.175 3.38516 184.656 3.92058 185 4.40416C184.622 5.40589 184.021 6.44216 183.196 7.51295C182.405 8.54921 181.564 9.37826 180.67 10Z" fill="#E01617"/>
<path d="M180.67 35C180.086 34.7582 179.433 34.3955 178.711 33.9119C177.99 33.4283 177.285 32.8929 176.598 32.3057C175.945 31.7185 175.412 31.1485 175 30.5958C175.55 29.4905 176.237 28.4024 177.062 27.3316C177.887 26.2608 178.729 25.4836 179.588 25C180.241 25.2763 180.911 25.6736 181.598 26.1917C182.32 26.6753 182.973 27.2107 183.557 27.7979C184.175 28.3852 184.656 28.9206 185 29.4042C184.622 30.4059 184.021 31.4422 183.196 32.5129C182.405 33.5492 181.564 34.3783 180.67 35Z" fill="#E01617"/>
<path d="M180.67 60C180.086 59.7582 179.433 59.3955 178.711 58.9119C177.99 58.4283 177.285 57.8929 176.598 57.3057C175.945 56.7185 175.412 56.1485 175 55.5958C175.55 54.4905 176.237 53.4024 177.062 52.3316C177.887 51.2608 178.729 50.4836 179.588 50C180.241 50.2763 180.911 50.6736 181.598 51.1917C182.32 51.6753 182.973 52.2107 183.557 52.7979C184.175 53.3852 184.656 53.9206 185 54.4042C184.622 55.4059 184.021 56.4422 183.196 57.5129C182.405 58.5492 181.564 59.3783 180.67 60Z" fill="#E01617"/>
<path d="M180.67 85C180.086 84.7582 179.433 84.3955 178.711 83.9119C177.99 83.4283 177.285 82.8929 176.598 82.3057C175.945 81.7185 175.412 81.1485 175 80.5958C175.55 79.4905 176.237 78.4024 177.062 77.3316C177.887 76.2608 178.729 75.4836 179.588 75C180.241 75.2763 180.911 75.6736 181.598 76.1917C182.32 76.6753 182.973 77.2107 183.557 77.7979C184.175 78.3852 184.656 78.9206 185 79.4042C184.622 80.4059 184.021 81.4422 183.196 82.5129C182.405 83.5492 181.564 84.3783 180.67 85Z" fill="#E01617"/>
<path d="M180.67 110C180.086 109.758 179.433 109.396 178.711 108.912C177.99 108.428 177.285 107.893 176.598 107.306C175.945 106.718 175.412 106.149 175 105.596C175.55 104.491 176.237 103.402 177.062 102.332C177.887 101.261 178.729 100.484 179.588 100C180.241 100.276 180.911 100.674 181.598 101.192C182.32 101.675 182.973 102.211 183.557 102.798C184.175 103.385 184.656 103.921 185 104.404C184.622 105.406 184.021 106.442 183.196 107.513C182.405 108.549 181.564 109.378 180.67 110Z" fill="#E01617"/>
<path d="M180.67 135C180.086 134.758 179.433 134.396 178.711 133.912C177.99 133.428 177.285 132.893 176.598 132.306C175.945 131.718 175.412 131.149 175 130.596C175.55 129.491 176.237 128.402 177.062 127.332C177.887 126.261 178.729 125.484 179.588 125C180.241 125.276 180.911 125.674 181.598 126.192C182.32 126.675 182.973 127.211 183.557 127.798C184.175 128.385 184.656 128.921 185 129.404C184.622 130.406 184.021 131.442 183.196 132.513C182.405 133.549 181.564 134.378 180.67 135Z" fill="#E01617"/>
<path d="M180.67 160C180.086 159.758 179.433 159.396 178.711 158.912C177.99 158.428 177.285 157.893 176.598 157.306C175.945 156.718 175.412 156.149 175 155.596C175.55 154.491 176.237 153.402 177.062 152.332C177.887 151.261 178.729 150.484 179.588 150C180.241 150.276 180.911 150.674 181.598 151.192C182.32 151.675 182.973 152.211 183.557 152.798C184.175 153.385 184.656 153.921 185 154.404C184.622 155.406 184.021 156.442 183.196 157.513C182.405 158.549 181.564 159.378 180.67 160Z" fill="#E01617"/>
<path d="M180.67 185C180.086 184.758 179.433 184.396 178.711 183.912C177.99 183.428 177.285 182.893 176.598 182.306C175.945 181.718 175.412 181.149 175 180.596C175.55 179.491 176.237 178.402 177.062 177.332C177.887 176.261 178.729 175.484 179.588 175C180.241 175.276 180.911 175.674 181.598 176.192C182.32 176.675 182.973 177.211 183.557 177.798C184.175 178.385 184.656 178.921 185 179.404C184.622 180.406 184.021 181.442 183.196 182.513C182.405 183.549 181.564 184.378 180.67 185Z" fill="#E01617"/>
</svg>
