<?xml version="1.0" encoding="UTF-8" standalone="no"?>
<!DOCTYPE svg PUBLIC "-//W3C//DTD SVG 1.1//EN" "http://www.w3.org/Graphics/SVG/1.1/DTD/svg11.dtd">
<svg width="100%" height="100%" viewBox="0 0 215 215" version="1.1" xmlns="http://www.w3.org/2000/svg" xmlns:xlink="http://www.w3.org/1999/xlink" xml:space="preserve" xmlns:serif="http://www.serif.com/" style="fill-rule:evenodd;clip-rule:evenodd;stroke-linejoin:round;stroke-miterlimit:2;">
    <g transform="matrix(1,0,0,1,0,-334.513)">
        <g id="_01" serif:id="01" transform="matrix(0.969335,0,0,0.927739,1.25433,339.149)">
            <rect x="-1.294" y="-4.997" width="220.996" height="230.905" style="fill:none;"/>
            <g transform="matrix(-22.7736,-6.95954,6.66091,-23.7946,91.1341,204.115)">
                <g>
                    <path d="M0.586,-0.527L0.245,-0.527L0.245,-0.387L0.517,-0.387L0.517,-0.254L0.245,-0.254L0.245,-0L0.073,-0L0.073,-0.66L0.586,-0.66L0.586,-0.527Z" style="fill:white;fill-rule:nonzero;"/>
                </g>
            </g>
            <g transform="matrix(-21.4967,-10.4949,10.0446,-22.4605,78.7829,200.654)">
                <g>
                    <path d="M0.369,-0.67C0.436,-0.67 0.493,-0.657 0.542,-0.63C0.59,-0.603 0.627,-0.564 0.653,-0.513C0.679,-0.462 0.692,-0.401 0.692,-0.33C0.692,-0.259 0.679,-0.198 0.653,-0.147C0.627,-0.096 0.59,-0.058 0.542,-0.031C0.493,-0.003 0.436,0.01 0.369,0.01C0.302,0.01 0.245,-0.003 0.196,-0.031C0.147,-0.058 0.11,-0.096 0.084,-0.147C0.058,-0.198 0.045,-0.259 0.045,-0.33C0.045,-0.401 0.058,-0.462 0.084,-0.513C0.11,-0.564 0.147,-0.603 0.196,-0.63C0.245,-0.657 0.302,-0.67 0.369,-0.67ZM0.369,-0.535C0.337,-0.535 0.31,-0.527 0.288,-0.512C0.266,-0.497 0.249,-0.474 0.238,-0.444C0.227,-0.413 0.221,-0.375 0.221,-0.33C0.221,-0.285 0.227,-0.248 0.238,-0.217C0.249,-0.186 0.266,-0.163 0.288,-0.148C0.31,-0.133 0.337,-0.125 0.369,-0.125C0.401,-0.125 0.428,-0.133 0.45,-0.148C0.471,-0.163 0.488,-0.186 0.499,-0.217C0.51,-0.248 0.516,-0.285 0.516,-0.33C0.516,-0.375 0.51,-0.413 0.499,-0.444C0.488,-0.474 0.471,-0.497 0.45,-0.512C0.428,-0.527 0.401,-0.535 0.369,-0.535Z" style="fill:white;fill-rule:nonzero;"/>
                </g>
            </g>
            <g transform="matrix(-19.3924,-14.2855,13.6725,-20.2618,64.3348,193.777)">
                <g>
                    <path d="M0.388,-0.66C0.467,-0.66 0.528,-0.642 0.572,-0.605C0.615,-0.568 0.637,-0.518 0.637,-0.457C0.637,-0.39 0.615,-0.338 0.572,-0.303C0.529,-0.268 0.468,-0.25 0.389,-0.25L0.373,-0.241L0.242,-0.241L0.242,-0L0.073,-0L0.073,-0.66L0.388,-0.66ZM0.364,-0.363C0.397,-0.363 0.422,-0.37 0.439,-0.383C0.456,-0.396 0.464,-0.418 0.464,-0.447C0.464,-0.476 0.456,-0.497 0.439,-0.51C0.422,-0.523 0.397,-0.53 0.364,-0.53L0.242,-0.53L0.242,-0.363L0.364,-0.363ZM0.465,-0.327L0.676,-0L0.486,-0L0.317,-0.289L0.465,-0.327Z" style="fill:white;fill-rule:nonzero;"/>
                </g>
            </g>
            <g transform="matrix(-16.2169,-18.0975,17.3209,-16.944,47.9789,180.823)">
                <g>
                    <path d="M0.628,-0.66L0.628,-0.527L0.413,-0.527L0.413,-0L0.241,-0L0.241,-0.527L0.025,-0.527L0.025,-0.66L0.628,-0.66Z" style="fill:white;fill-rule:nonzero;"/>
                </g>
            </g>
            <g transform="matrix(-13.1595,-20.6293,19.7441,-13.7495,38.7637,171.214)">
                <g>
                    <path d="M0.669,-0.66L0.669,-0L0.497,-0L0.497,-0.66L0.669,-0.66ZM0.245,-0.66L0.245,-0L0.073,-0L0.073,-0.66L0.245,-0.66ZM0.589,-0.399L0.589,-0.266L0.157,-0.266L0.157,-0.399L0.589,-0.399Z" style="fill:white;fill-rule:nonzero;"/>
                </g>
            </g>
            <g transform="matrix(-9.66876,-22.6398,21.6684,-10.1023,29.8477,157.369)">
                <g>
                    <path d="M0.073,-0L0.073,-0.66L0.587,-0.66L0.587,-0.527L0.245,-0.527L0.245,-0.393L0.517,-0.393L0.517,-0.268L0.245,-0.268L0.245,-0.133L0.6,-0.133L0.6,-0L0.073,-0Z" style="fill:white;fill-rule:nonzero;"/>
                </g>
            </g>
            <g transform="matrix(-5.01316,-24.2318,23.1921,-5.23792,22.5038,139.403)">
                <g>
                    <path d="M0.586,-0.527L0.245,-0.527L0.245,-0.387L0.517,-0.387L0.517,-0.254L0.245,-0.254L0.245,-0L0.073,-0L0.073,-0.66L0.586,-0.66L0.586,-0.527Z" style="fill:white;fill-rule:nonzero;"/>
                </g>
            </g>
            <g transform="matrix(-1.45479,-24.7448,23.683,-1.52001,19.5232,126.389)">
                <g>
                    <path d="M0.369,-0.67C0.436,-0.67 0.493,-0.657 0.542,-0.63C0.59,-0.603 0.627,-0.564 0.653,-0.513C0.679,-0.462 0.692,-0.401 0.692,-0.33C0.692,-0.259 0.679,-0.198 0.653,-0.147C0.627,-0.096 0.59,-0.058 0.542,-0.031C0.493,-0.003 0.436,0.01 0.369,0.01C0.302,0.01 0.245,-0.003 0.196,-0.031C0.147,-0.058 0.11,-0.096 0.084,-0.147C0.058,-0.198 0.045,-0.259 0.045,-0.33C0.045,-0.401 0.058,-0.462 0.084,-0.513C0.11,-0.564 0.147,-0.603 0.196,-0.63C0.245,-0.657 0.302,-0.67 0.369,-0.67ZM0.369,-0.535C0.337,-0.535 0.31,-0.527 0.288,-0.512C0.266,-0.497 0.249,-0.474 0.238,-0.444C0.227,-0.413 0.221,-0.375 0.221,-0.33C0.221,-0.285 0.227,-0.248 0.238,-0.217C0.249,-0.186 0.266,-0.163 0.288,-0.148C0.31,-0.133 0.337,-0.125 0.369,-0.125C0.401,-0.125 0.428,-0.133 0.45,-0.148C0.471,-0.163 0.488,-0.186 0.499,-0.217C0.51,-0.248 0.516,-0.285 0.516,-0.33C0.516,-0.375 0.51,-0.413 0.499,-0.444C0.488,-0.474 0.471,-0.497 0.45,-0.512C0.428,-0.527 0.401,-0.535 0.369,-0.535Z" style="fill:white;fill-rule:nonzero;"/>
                </g>
            </g>
            <g transform="matrix(2.66868,-24.6342,23.5771,2.78833,18.4039,109.844)">
                <g>
                    <path d="M0.369,-0.67C0.436,-0.67 0.493,-0.657 0.542,-0.63C0.59,-0.603 0.627,-0.564 0.653,-0.513C0.679,-0.462 0.692,-0.401 0.692,-0.33C0.692,-0.259 0.679,-0.198 0.653,-0.147C0.627,-0.096 0.59,-0.058 0.542,-0.031C0.493,-0.003 0.436,0.01 0.369,0.01C0.302,0.01 0.245,-0.003 0.196,-0.031C0.147,-0.058 0.11,-0.096 0.084,-0.147C0.058,-0.198 0.045,-0.259 0.045,-0.33C0.045,-0.401 0.058,-0.462 0.084,-0.513C0.11,-0.564 0.147,-0.603 0.196,-0.63C0.245,-0.657 0.302,-0.67 0.369,-0.67ZM0.369,-0.535C0.337,-0.535 0.31,-0.527 0.288,-0.512C0.266,-0.497 0.249,-0.474 0.238,-0.444C0.227,-0.413 0.221,-0.375 0.221,-0.33C0.221,-0.285 0.227,-0.248 0.238,-0.217C0.249,-0.186 0.266,-0.163 0.288,-0.148C0.31,-0.133 0.337,-0.125 0.369,-0.125C0.401,-0.125 0.428,-0.133 0.45,-0.148C0.471,-0.163 0.488,-0.186 0.499,-0.217C0.51,-0.248 0.516,-0.285 0.516,-0.33C0.516,-0.375 0.51,-0.413 0.499,-0.444C0.488,-0.474 0.471,-0.497 0.45,-0.512C0.428,-0.527 0.401,-0.535 0.369,-0.535Z" style="fill:white;fill-rule:nonzero;"/>
                </g>
            </g>
            <g transform="matrix(6.8017,-23.7511,22.7319,7.10664,20.0364,93.339)">
                <g>
                    <path d="M0.353,-0.66C0.456,-0.66 0.536,-0.631 0.591,-0.574C0.646,-0.517 0.673,-0.435 0.673,-0.33C0.673,-0.225 0.646,-0.143 0.591,-0.086C0.536,-0.029 0.456,-0 0.353,-0L0.073,-0L0.073,-0.66L0.353,-0.66ZM0.336,-0.13C0.392,-0.13 0.433,-0.147 0.459,-0.181C0.484,-0.214 0.497,-0.264 0.497,-0.33C0.497,-0.396 0.484,-0.446 0.459,-0.48C0.433,-0.513 0.392,-0.53 0.336,-0.53L0.245,-0.53L0.245,-0.13L0.336,-0.13Z" style="fill:white;fill-rule:nonzero;"/>
                </g>
            </g>
            <g transform="matrix(11.5707,-21.644,20.7152,12.0895,26.445,72.6714)">
                <g>
                    <path d="M0.245,-0.133L0.576,-0.133L0.576,-0L0.073,-0L0.073,-0.66L0.245,-0.66L0.245,-0.133Z" style="fill:white;fill-rule:nonzero;"/>
                </g>
            </g>
            <g transform="matrix(14.3589,-19.7367,18.8898,15.0027,32.1654,61.0482)">
                <g>
                    <path d="M0.369,-0.67C0.436,-0.67 0.493,-0.657 0.542,-0.63C0.59,-0.603 0.627,-0.564 0.653,-0.513C0.679,-0.462 0.692,-0.401 0.692,-0.33C0.692,-0.259 0.679,-0.198 0.653,-0.147C0.627,-0.096 0.59,-0.058 0.542,-0.031C0.493,-0.003 0.436,0.01 0.369,0.01C0.302,0.01 0.245,-0.003 0.196,-0.031C0.147,-0.058 0.11,-0.096 0.084,-0.147C0.058,-0.198 0.045,-0.259 0.045,-0.33C0.045,-0.401 0.058,-0.462 0.084,-0.513C0.11,-0.564 0.147,-0.603 0.196,-0.63C0.245,-0.657 0.302,-0.67 0.369,-0.67ZM0.369,-0.535C0.337,-0.535 0.31,-0.527 0.288,-0.512C0.266,-0.497 0.249,-0.474 0.238,-0.444C0.227,-0.413 0.221,-0.375 0.221,-0.33C0.221,-0.285 0.227,-0.248 0.238,-0.217C0.249,-0.186 0.266,-0.163 0.288,-0.148C0.31,-0.133 0.337,-0.125 0.369,-0.125C0.401,-0.125 0.428,-0.133 0.45,-0.148C0.471,-0.163 0.488,-0.186 0.499,-0.217C0.51,-0.248 0.516,-0.285 0.516,-0.33C0.516,-0.375 0.51,-0.413 0.499,-0.444C0.488,-0.474 0.471,-0.497 0.45,-0.512C0.428,-0.527 0.401,-0.535 0.369,-0.535Z" style="fill:white;fill-rule:nonzero;"/>
                </g>
            </g>
            <g transform="matrix(17.1386,-17.1452,16.4095,17.907,40.787,49.2979)">
                <g>
                    <path d="M0.677,-0.66L0.443,-0L0.241,-0L0.006,-0.66L0.187,-0.66L0.308,-0.261L0.344,-0.131L0.379,-0.259L0.502,-0.66L0.677,-0.66Z" style="fill:white;fill-rule:nonzero;"/>
                </g>
            </g>
            <g transform="matrix(19.4525,-14.1961,13.5869,20.3246,50.8658,38.9922)">
                <g>
                    <path d="M0.073,-0L0.073,-0.66L0.587,-0.66L0.587,-0.527L0.245,-0.527L0.245,-0.393L0.517,-0.393L0.517,-0.268L0.245,-0.268L0.245,-0.133L0.6,-0.133L0.6,-0L0.073,-0Z" style="fill:white;fill-rule:nonzero;"/>
                </g>
            </g>
            <g transform="matrix(21.3504,-10.816,10.3519,22.3076,62.6107,29.9383)">
                <g>
                    <path d="M0.388,-0.66C0.467,-0.66 0.528,-0.642 0.572,-0.605C0.615,-0.568 0.637,-0.518 0.637,-0.457C0.637,-0.39 0.615,-0.338 0.572,-0.303C0.529,-0.268 0.468,-0.25 0.389,-0.25L0.373,-0.241L0.242,-0.241L0.242,-0L0.073,-0L0.073,-0.66L0.388,-0.66ZM0.364,-0.363C0.397,-0.363 0.422,-0.37 0.439,-0.383C0.456,-0.396 0.464,-0.418 0.464,-0.447C0.464,-0.476 0.456,-0.497 0.439,-0.51C0.422,-0.523 0.397,-0.53 0.364,-0.53L0.242,-0.53L0.242,-0.363L0.364,-0.363ZM0.465,-0.327L0.676,-0L0.486,-0L0.317,-0.289L0.465,-0.327Z" style="fill:white;fill-rule:nonzero;"/>
                </g>
            </g>
            <g transform="matrix(22.6487,-7.39097,7.07382,23.6641,76.9898,22.9038)">
                <g>
                    <path d="M0.331,-0.67C0.392,-0.67 0.446,-0.661 0.494,-0.642C0.541,-0.622 0.581,-0.595 0.616,-0.558L0.533,-0.447C0.504,-0.477 0.474,-0.5 0.441,-0.515C0.408,-0.53 0.37,-0.537 0.328,-0.537C0.303,-0.537 0.283,-0.534 0.268,-0.529C0.253,-0.524 0.242,-0.516 0.235,-0.507C0.228,-0.498 0.225,-0.487 0.225,-0.475C0.225,-0.461 0.232,-0.449 0.245,-0.44C0.258,-0.43 0.279,-0.422 0.308,-0.415L0.419,-0.39C0.485,-0.375 0.533,-0.352 0.564,-0.323C0.595,-0.294 0.61,-0.255 0.61,-0.206C0.61,-0.159 0.598,-0.12 0.574,-0.088C0.55,-0.055 0.517,-0.031 0.475,-0.015C0.433,0.002 0.385,0.01 0.331,0.01C0.287,0.01 0.245,0.005 0.205,-0.005C0.165,-0.014 0.129,-0.028 0.097,-0.046C0.065,-0.064 0.038,-0.085 0.016,-0.108L0.099,-0.223C0.116,-0.204 0.136,-0.187 0.161,-0.172C0.185,-0.157 0.212,-0.145 0.241,-0.136C0.27,-0.127 0.299,-0.123 0.329,-0.123C0.352,-0.123 0.372,-0.125 0.388,-0.13C0.403,-0.135 0.415,-0.142 0.422,-0.151C0.429,-0.16 0.433,-0.171 0.433,-0.184C0.433,-0.198 0.428,-0.21 0.418,-0.22C0.408,-0.229 0.389,-0.237 0.361,-0.244L0.239,-0.271C0.202,-0.28 0.169,-0.291 0.14,-0.306C0.111,-0.32 0.088,-0.339 0.071,-0.364C0.054,-0.388 0.046,-0.418 0.046,-0.455C0.046,-0.496 0.057,-0.533 0.08,-0.566C0.103,-0.598 0.135,-0.623 0.178,-0.642C0.221,-0.661 0.272,-0.67 0.331,-0.67Z" style="fill:white;fill-rule:nonzero;"/>
                </g>
            </g>
            <g transform="matrix(22.7736,6.95954,-6.66091,23.7946,127.274,19.2325)">
                <g>
                    <path d="M0.586,-0.527L0.245,-0.527L0.245,-0.387L0.517,-0.387L0.517,-0.254L0.245,-0.254L0.245,-0L0.073,-0L0.073,-0.66L0.586,-0.66L0.586,-0.527Z" style="fill:white;fill-rule:nonzero;"/>
                </g>
            </g>
            <g transform="matrix(21.4967,10.4949,-10.0446,22.4605,139.625,22.6939)">
                <g>
                    <path d="M0.369,-0.67C0.436,-0.67 0.493,-0.657 0.542,-0.63C0.59,-0.603 0.627,-0.564 0.653,-0.513C0.679,-0.462 0.692,-0.401 0.692,-0.33C0.692,-0.259 0.679,-0.198 0.653,-0.147C0.627,-0.096 0.59,-0.058 0.542,-0.031C0.493,-0.003 0.436,0.01 0.369,0.01C0.302,0.01 0.245,-0.003 0.196,-0.031C0.147,-0.058 0.11,-0.096 0.084,-0.147C0.058,-0.198 0.045,-0.259 0.045,-0.33C0.045,-0.401 0.058,-0.462 0.084,-0.513C0.11,-0.564 0.147,-0.603 0.196,-0.63C0.245,-0.657 0.302,-0.67 0.369,-0.67ZM0.369,-0.535C0.337,-0.535 0.31,-0.527 0.288,-0.512C0.266,-0.497 0.249,-0.474 0.238,-0.444C0.227,-0.413 0.221,-0.375 0.221,-0.33C0.221,-0.285 0.227,-0.248 0.238,-0.217C0.249,-0.186 0.266,-0.163 0.288,-0.148C0.31,-0.133 0.337,-0.125 0.369,-0.125C0.401,-0.125 0.428,-0.133 0.45,-0.148C0.471,-0.163 0.488,-0.186 0.499,-0.217C0.51,-0.248 0.516,-0.285 0.516,-0.33C0.516,-0.375 0.51,-0.413 0.499,-0.444C0.488,-0.474 0.471,-0.497 0.45,-0.512C0.428,-0.527 0.401,-0.535 0.369,-0.535Z" style="fill:white;fill-rule:nonzero;"/>
                </g>
            </g>
            <g transform="matrix(19.3924,14.2855,-13.6725,20.2618,154.073,29.5705)">
                <g>
                    <path d="M0.388,-0.66C0.467,-0.66 0.528,-0.642 0.572,-0.605C0.615,-0.568 0.637,-0.518 0.637,-0.457C0.637,-0.39 0.615,-0.338 0.572,-0.303C0.529,-0.268 0.468,-0.25 0.389,-0.25L0.373,-0.241L0.242,-0.241L0.242,-0L0.073,-0L0.073,-0.66L0.388,-0.66ZM0.364,-0.363C0.397,-0.363 0.422,-0.37 0.439,-0.383C0.456,-0.396 0.464,-0.418 0.464,-0.447C0.464,-0.476 0.456,-0.497 0.439,-0.51C0.422,-0.523 0.397,-0.53 0.364,-0.53L0.242,-0.53L0.242,-0.363L0.364,-0.363ZM0.465,-0.327L0.676,-0L0.486,-0L0.317,-0.289L0.465,-0.327Z" style="fill:white;fill-rule:nonzero;"/>
                </g>
            </g>
            <g transform="matrix(16.2169,18.0975,-17.3209,16.944,170.429,42.5251)">
                <g>
                    <path d="M0.628,-0.66L0.628,-0.527L0.413,-0.527L0.413,-0L0.241,-0L0.241,-0.527L0.025,-0.527L0.025,-0.66L0.628,-0.66Z" style="fill:white;fill-rule:nonzero;"/>
                </g>
            </g>
            <g transform="matrix(13.1595,20.6293,-19.7441,13.7495,179.644,52.1337)">
                <g>
                    <path d="M0.669,-0.66L0.669,-0L0.497,-0L0.497,-0.66L0.669,-0.66ZM0.245,-0.66L0.245,-0L0.073,-0L0.073,-0.66L0.245,-0.66ZM0.589,-0.399L0.589,-0.266L0.157,-0.266L0.157,-0.399L0.589,-0.399Z" style="fill:white;fill-rule:nonzero;"/>
                </g>
            </g>
            <g transform="matrix(9.66876,22.6398,-21.6684,10.1023,188.56,65.9792)">
                <g>
                    <path d="M0.073,-0L0.073,-0.66L0.587,-0.66L0.587,-0.527L0.245,-0.527L0.245,-0.393L0.517,-0.393L0.517,-0.268L0.245,-0.268L0.245,-0.133L0.6,-0.133L0.6,-0L0.073,-0Z" style="fill:white;fill-rule:nonzero;"/>
                </g>
            </g>
            <g transform="matrix(5.01316,24.2318,-23.1921,5.23792,195.904,83.9445)">
                <g>
                    <path d="M0.586,-0.527L0.245,-0.527L0.245,-0.387L0.517,-0.387L0.517,-0.254L0.245,-0.254L0.245,-0L0.073,-0L0.073,-0.66L0.586,-0.66L0.586,-0.527Z" style="fill:white;fill-rule:nonzero;"/>
                </g>
            </g>
            <g transform="matrix(1.45479,24.7448,-23.683,1.52001,198.885,96.9588)">
                <g>
                    <path d="M0.369,-0.67C0.436,-0.67 0.493,-0.657 0.542,-0.63C0.59,-0.603 0.627,-0.564 0.653,-0.513C0.679,-0.462 0.692,-0.401 0.692,-0.33C0.692,-0.259 0.679,-0.198 0.653,-0.147C0.627,-0.096 0.59,-0.058 0.542,-0.031C0.493,-0.003 0.436,0.01 0.369,0.01C0.302,0.01 0.245,-0.003 0.196,-0.031C0.147,-0.058 0.11,-0.096 0.084,-0.147C0.058,-0.198 0.045,-0.259 0.045,-0.33C0.045,-0.401 0.058,-0.462 0.084,-0.513C0.11,-0.564 0.147,-0.603 0.196,-0.63C0.245,-0.657 0.302,-0.67 0.369,-0.67ZM0.369,-0.535C0.337,-0.535 0.31,-0.527 0.288,-0.512C0.266,-0.497 0.249,-0.474 0.238,-0.444C0.227,-0.413 0.221,-0.375 0.221,-0.33C0.221,-0.285 0.227,-0.248 0.238,-0.217C0.249,-0.186 0.266,-0.163 0.288,-0.148C0.31,-0.133 0.337,-0.125 0.369,-0.125C0.401,-0.125 0.428,-0.133 0.45,-0.148C0.471,-0.163 0.488,-0.186 0.499,-0.217C0.51,-0.248 0.516,-0.285 0.516,-0.33C0.516,-0.375 0.51,-0.413 0.499,-0.444C0.488,-0.474 0.471,-0.497 0.45,-0.512C0.428,-0.527 0.401,-0.535 0.369,-0.535Z" style="fill:white;fill-rule:nonzero;"/>
                </g>
            </g>
            <g transform="matrix(-2.66868,24.6342,-23.5771,-2.78833,200.004,113.503)">
                <g>
                    <path d="M0.369,-0.67C0.436,-0.67 0.493,-0.657 0.542,-0.63C0.59,-0.603 0.627,-0.564 0.653,-0.513C0.679,-0.462 0.692,-0.401 0.692,-0.33C0.692,-0.259 0.679,-0.198 0.653,-0.147C0.627,-0.096 0.59,-0.058 0.542,-0.031C0.493,-0.003 0.436,0.01 0.369,0.01C0.302,0.01 0.245,-0.003 0.196,-0.031C0.147,-0.058 0.11,-0.096 0.084,-0.147C0.058,-0.198 0.045,-0.259 0.045,-0.33C0.045,-0.401 0.058,-0.462 0.084,-0.513C0.11,-0.564 0.147,-0.603 0.196,-0.63C0.245,-0.657 0.302,-0.67 0.369,-0.67ZM0.369,-0.535C0.337,-0.535 0.31,-0.527 0.288,-0.512C0.266,-0.497 0.249,-0.474 0.238,-0.444C0.227,-0.413 0.221,-0.375 0.221,-0.33C0.221,-0.285 0.227,-0.248 0.238,-0.217C0.249,-0.186 0.266,-0.163 0.288,-0.148C0.31,-0.133 0.337,-0.125 0.369,-0.125C0.401,-0.125 0.428,-0.133 0.45,-0.148C0.471,-0.163 0.488,-0.186 0.499,-0.217C0.51,-0.248 0.516,-0.285 0.516,-0.33C0.516,-0.375 0.51,-0.413 0.499,-0.444C0.488,-0.474 0.471,-0.497 0.45,-0.512C0.428,-0.527 0.401,-0.535 0.369,-0.535Z" style="fill:white;fill-rule:nonzero;"/>
                </g>
            </g>
            <g transform="matrix(-6.8017,23.7511,-22.7319,-7.10664,198.372,130.009)">
                <g>
                    <path d="M0.353,-0.66C0.456,-0.66 0.536,-0.631 0.591,-0.574C0.646,-0.517 0.673,-0.435 0.673,-0.33C0.673,-0.225 0.646,-0.143 0.591,-0.086C0.536,-0.029 0.456,-0 0.353,-0L0.073,-0L0.073,-0.66L0.353,-0.66ZM0.336,-0.13C0.392,-0.13 0.433,-0.147 0.459,-0.181C0.484,-0.214 0.497,-0.264 0.497,-0.33C0.497,-0.396 0.484,-0.446 0.459,-0.48C0.433,-0.513 0.392,-0.53 0.336,-0.53L0.245,-0.53L0.245,-0.13L0.336,-0.13Z" style="fill:white;fill-rule:nonzero;"/>
                </g>
            </g>
            <g transform="matrix(-11.5707,21.644,-20.7152,-12.0895,191.963,150.676)">
                <g>
                    <path d="M0.245,-0.133L0.576,-0.133L0.576,-0L0.073,-0L0.073,-0.66L0.245,-0.66L0.245,-0.133Z" style="fill:white;fill-rule:nonzero;"/>
                </g>
            </g>
            <g transform="matrix(-14.3589,19.7367,-18.8898,-15.0027,186.243,162.3)">
                <g>
                    <path d="M0.369,-0.67C0.436,-0.67 0.493,-0.657 0.542,-0.63C0.59,-0.603 0.627,-0.564 0.653,-0.513C0.679,-0.462 0.692,-0.401 0.692,-0.33C0.692,-0.259 0.679,-0.198 0.653,-0.147C0.627,-0.096 0.59,-0.058 0.542,-0.031C0.493,-0.003 0.436,0.01 0.369,0.01C0.302,0.01 0.245,-0.003 0.196,-0.031C0.147,-0.058 0.11,-0.096 0.084,-0.147C0.058,-0.198 0.045,-0.259 0.045,-0.33C0.045,-0.401 0.058,-0.462 0.084,-0.513C0.11,-0.564 0.147,-0.603 0.196,-0.63C0.245,-0.657 0.302,-0.67 0.369,-0.67ZM0.369,-0.535C0.337,-0.535 0.31,-0.527 0.288,-0.512C0.266,-0.497 0.249,-0.474 0.238,-0.444C0.227,-0.413 0.221,-0.375 0.221,-0.33C0.221,-0.285 0.227,-0.248 0.238,-0.217C0.249,-0.186 0.266,-0.163 0.288,-0.148C0.31,-0.133 0.337,-0.125 0.369,-0.125C0.401,-0.125 0.428,-0.133 0.45,-0.148C0.471,-0.163 0.488,-0.186 0.499,-0.217C0.51,-0.248 0.516,-0.285 0.516,-0.33C0.516,-0.375 0.51,-0.413 0.499,-0.444C0.488,-0.474 0.471,-0.497 0.45,-0.512C0.428,-0.527 0.401,-0.535 0.369,-0.535Z" style="fill:white;fill-rule:nonzero;"/>
                </g>
            </g>
            <g transform="matrix(-17.1386,17.1452,-16.4095,-17.907,177.621,174.05)">
                <g>
                    <path d="M0.677,-0.66L0.443,-0L0.241,-0L0.006,-0.66L0.187,-0.66L0.308,-0.261L0.344,-0.131L0.379,-0.259L0.502,-0.66L0.677,-0.66Z" style="fill:white;fill-rule:nonzero;"/>
                </g>
            </g>
            <g transform="matrix(-19.4525,14.1961,-13.5869,-20.3246,167.542,184.356)">
                <g>
                    <path d="M0.073,-0L0.073,-0.66L0.587,-0.66L0.587,-0.527L0.245,-0.527L0.245,-0.393L0.517,-0.393L0.517,-0.268L0.245,-0.268L0.245,-0.133L0.6,-0.133L0.6,-0L0.073,-0Z" style="fill:white;fill-rule:nonzero;"/>
                </g>
            </g>
            <g transform="matrix(-21.3504,10.816,-10.3519,-22.3076,155.797,193.41)">
                <g>
                    <path d="M0.388,-0.66C0.467,-0.66 0.528,-0.642 0.572,-0.605C0.615,-0.568 0.637,-0.518 0.637,-0.457C0.637,-0.39 0.615,-0.338 0.572,-0.303C0.529,-0.268 0.468,-0.25 0.389,-0.25L0.373,-0.241L0.242,-0.241L0.242,-0L0.073,-0L0.073,-0.66L0.388,-0.66ZM0.364,-0.363C0.397,-0.363 0.422,-0.37 0.439,-0.383C0.456,-0.396 0.464,-0.418 0.464,-0.447C0.464,-0.476 0.456,-0.497 0.439,-0.51C0.422,-0.523 0.397,-0.53 0.364,-0.53L0.242,-0.53L0.242,-0.363L0.364,-0.363ZM0.465,-0.327L0.676,-0L0.486,-0L0.317,-0.289L0.465,-0.327Z" style="fill:white;fill-rule:nonzero;"/>
                </g>
            </g>
            <g transform="matrix(-22.6487,7.39097,-7.07382,-23.6641,141.418,200.444)">
                <g>
                    <path d="M0.331,-0.67C0.392,-0.67 0.446,-0.661 0.494,-0.642C0.541,-0.622 0.581,-0.595 0.616,-0.558L0.533,-0.447C0.504,-0.477 0.474,-0.5 0.441,-0.515C0.408,-0.53 0.37,-0.537 0.328,-0.537C0.303,-0.537 0.283,-0.534 0.268,-0.529C0.253,-0.524 0.242,-0.516 0.235,-0.507C0.228,-0.498 0.225,-0.487 0.225,-0.475C0.225,-0.461 0.232,-0.449 0.245,-0.44C0.258,-0.43 0.279,-0.422 0.308,-0.415L0.419,-0.39C0.485,-0.375 0.533,-0.352 0.564,-0.323C0.595,-0.294 0.61,-0.255 0.61,-0.206C0.61,-0.159 0.598,-0.12 0.574,-0.088C0.55,-0.055 0.517,-0.031 0.475,-0.015C0.433,0.002 0.385,0.01 0.331,0.01C0.287,0.01 0.245,0.005 0.205,-0.005C0.165,-0.014 0.129,-0.028 0.097,-0.046C0.065,-0.064 0.038,-0.085 0.016,-0.108L0.099,-0.223C0.116,-0.204 0.136,-0.187 0.161,-0.172C0.185,-0.157 0.212,-0.145 0.241,-0.136C0.27,-0.127 0.299,-0.123 0.329,-0.123C0.352,-0.123 0.372,-0.125 0.388,-0.13C0.403,-0.135 0.415,-0.142 0.422,-0.151C0.429,-0.16 0.433,-0.171 0.433,-0.184C0.433,-0.198 0.428,-0.21 0.418,-0.22C0.408,-0.229 0.389,-0.237 0.361,-0.244L0.239,-0.271C0.202,-0.28 0.169,-0.291 0.14,-0.306C0.111,-0.32 0.088,-0.339 0.071,-0.364C0.054,-0.388 0.046,-0.418 0.046,-0.455C0.046,-0.496 0.057,-0.533 0.08,-0.566C0.103,-0.598 0.135,-0.623 0.178,-0.642C0.221,-0.661 0.272,-0.67 0.331,-0.67Z" style="fill:white;fill-rule:nonzero;"/>
                </g>
            </g>
            <g transform="matrix(0.61606,0.0483155,-0.0462422,0.643681,101.781,-2.32289)">
                <path d="M16.773,25C15.663,24.541 14.423,23.852 13.052,22.933C11.68,22.014 10.342,20.997 9.036,19.881C7.796,18.765 6.784,17.682 6,16.632C7.045,14.532 8.351,12.465 9.918,10.43C11.485,8.396 13.084,6.919 14.717,6C15.957,6.525 17.23,7.28 18.536,8.264C19.907,9.183 21.148,10.2 22.258,11.316C23.433,12.432 24.347,13.449 25,14.368C24.282,16.271 23.139,18.24 21.572,20.275C20.07,22.244 18.471,23.819 16.773,25Z" style="fill:rgb(194,8,8);fill-rule:nonzero;"/>
            </g>
            <g transform="matrix(0.61634,0.044241,-0.0423425,0.643974,100.372,202.571)">
                <path d="M16.773,25C15.663,24.541 14.423,23.852 13.052,22.933C11.68,22.014 10.342,20.997 9.036,19.881C7.796,18.765 6.784,17.682 6,16.632C7.045,14.532 8.351,12.465 9.918,10.43C11.485,8.396 13.084,6.919 14.717,6C15.957,6.525 17.23,7.28 18.536,8.264C19.907,9.183 21.148,10.2 22.258,11.316C23.433,12.432 24.347,13.449 25,14.368C24.282,16.271 23.139,18.24 21.572,20.275C20.07,22.244 18.471,23.819 16.773,25Z" style="fill:rgb(194,8,8);fill-rule:nonzero;"/>
            </g>
        </g>
    </g>
</svg>
