<svg width="60" height="60" viewBox="0 0 60 60" fill="none" xmlns="http://www.w3.org/2000/svg">
<path d="M17.4951 0C7.84762 0 0 7.85488 0 17.5049V42.5049C0 52.1524 7.85488 60 17.5049 60H42.5049C52.1524 60 60 52.1451 60 42.4951V17.4951C60 7.84762 52.1451 0 42.4951 0H17.4951ZM47.5 10C48.88 10 50 11.12 50 12.5C50 13.88 48.88 15 47.5 15C46.12 15 45 13.88 45 12.5C45 11.12 46.12 10 47.5 10ZM30 15C38.2725 15 45 21.7275 45 30C45 38.2725 38.2725 45 30 45C21.7275 45 15 38.2725 15 30C15 21.7275 21.7275 15 30 15ZM30 20C27.3478 20 24.8043 21.0536 22.9289 22.9289C21.0536 24.8043 20 27.3478 20 30C20 32.6522 21.0536 35.1957 22.9289 37.0711C24.8043 38.9464 27.3478 40 30 40C32.6522 40 35.1957 38.9464 37.0711 37.0711C38.9464 35.1957 40 32.6522 40 30C40 27.3478 38.9464 24.8043 37.0711 22.9289C35.1957 21.0536 32.6522 20 30 20V20Z" fill="#040404"/>
</svg>
