<svg width="60" height="60" viewBox="0 0 60 60" fill="none" xmlns="http://www.w3.org/2000/svg">
<path fill-rule="evenodd" clip-rule="evenodd" d="M54.7995 46.5126V16H6V46.5126H54.7995ZM27.0485 34.7782L11.1642 44.3797H49.509L33.7049 34.8268C32.8705 35.6945 31.6974 36.2345 30.3998 36.2345C29.0782 36.2345 27.8863 35.674 27.0485 34.7782ZM34.7313 30.1344C34.8968 30.6079 34.9864 31.1172 34.9864 31.6471C34.9864 32.0583 34.9326 32.4576 34.8311 32.8364L52.763 43.6767V19.2344L34.7313 30.1344ZM26.0469 30.1976L8.03648 19.3103V43.5999L25.9514 32.7707C25.8609 32.4115 25.8131 32.0353 25.8131 31.6471C25.8131 31.1411 25.895 30.6531 26.0469 30.1976ZM33.4601 28.2318L50.1659 18.1329H10.5073L27.2891 28.2779C28.1064 27.522 29.1994 27.0605 30.3998 27.0605C31.5754 27.0605 32.6478 27.5032 33.4601 28.2318Z" fill="white"/>
</svg>
