<svg width="60" height="60" viewBox="0 0 60 60" fill="none" xmlns="http://www.w3.org/2000/svg">
<path fill-rule="evenodd" clip-rule="evenodd" d="M18.8819 35.0171C18.8819 29.6229 22.5317 24.2264 29.8365 24.2264C37.1965 24.2264 40.8456 29.6235 40.8456 35.0171C40.8456 40.4113 37.1965 45.8084 29.8365 45.8084C22.5317 45.8084 18.8819 40.4113 18.8819 35.0171ZM38.7368 34.9625C38.7368 30.432 35.7908 25.8446 29.891 25.8446C23.8836 25.8446 20.8818 30.4309 20.8818 34.9625V34.9666C20.8293 39.5494 23.7765 44.1356 29.782 44.1356C35.7363 44.1356 38.7368 39.5471 38.7368 34.9625Z" fill="white"/>
<path fill-rule="evenodd" clip-rule="evenodd" d="M26.6628 23.6081C24.72 23.5472 23.1909 22.9904 23.1909 21.1084V17.0721C23.1909 16.9761 23.2342 16.8859 23.3084 16.825C23.3826 16.7647 23.4798 16.7411 23.5737 16.7601C25.4094 17.1382 27.4611 17.4083 29.891 17.4083C31.6775 17.4083 34.1731 17.2066 36.5006 16.8279C36.5925 16.8129 36.687 16.8388 36.7579 16.8997C36.8288 16.96 36.8695 17.0485 36.8695 17.1422L36.8636 20.9992C36.8636 21.6118 36.7435 22.0888 36.5078 22.4588C36.2261 22.9002 35.7783 23.2013 35.1277 23.3811C34.5453 23.5426 33.7883 23.6081 32.8363 23.6081H26.6628ZM26.8722 21.8267H33.0438C33.1225 21.8229 33.2001 21.8197 33.2764 21.8165C33.5229 21.8063 33.7558 21.7966 33.9669 21.7698C34.2243 21.7365 34.4455 21.6859 34.5979 21.5417C34.7449 21.4015 34.8093 21.1779 34.8093 20.8355V18.7782C33.4988 19.0523 31.9362 19.1902 30.3276 19.1902C28.5897 19.1902 26.8046 19.0006 25.1908 18.6662V20.4539C25.1908 20.9326 25.3194 21.2601 25.5381 21.4727C25.8782 21.8026 26.4027 21.8549 26.8722 21.8267Z" fill="white"/>
<path fill-rule="evenodd" clip-rule="evenodd" d="M42.2861 21.9847C42.5108 21.5038 42.7461 21 42.8251 20.1867C42.812 20.147 42.745 19.9626 42.6439 19.8143C42.3051 19.3161 41.512 18.6891 39.9652 18.8288L39.9179 20.4625C39.7582 26.4903 42.9087 29.6402 45.4734 32.2044L45.498 32.2289L45.4998 32.2308C45.5039 32.2349 45.5084 32.2394 45.5124 32.2439C48.5857 35.7515 48.9711 38.1173 49.2823 40.0855C49.2866 40.1125 49.2908 40.1395 49.2951 40.1664C49.4844 41.3645 49.6498 42.4113 50.4884 43.4955C50.497 43.5069 50.5055 43.5196 50.5127 43.5322C50.7609 43.9661 50.8817 44.4011 50.8817 44.8355C50.8817 45.2757 50.6729 46.3612 49.585 47.1542C48.8989 47.6542 47.8511 48.0443 46.255 48.0443H10.6363C10.6133 48.0443 10.5903 48.042 10.5673 48.0369C9.45448 47.7898 8.84585 46.5227 8.84585 45.1625C8.84585 44.2655 9.09534 43.3713 9.63568 42.7685C10.0671 42.2615 10.183 41.5268 10.3282 40.6071C10.3474 40.4855 10.3671 40.3606 10.3881 40.2326C10.6822 38.4386 11.1596 36.063 13.5021 33.2852C13.5079 33.2784 13.5141 33.2712 13.5205 33.265C13.8411 32.9445 14.1718 32.6254 14.5064 32.3025C17.1931 29.7101 20.1349 26.8716 20.1366 21.059L20.0381 18.3547C19.356 18.3628 18.7611 18.7167 18.3193 19.1799C17.8157 19.7074 17.4999 20.3809 17.4999 20.89C17.4999 21.3464 17.6883 21.6403 17.8841 21.9457C17.9033 21.9756 17.9226 22.0056 17.9417 22.0359C18.2142 22.4675 18.4821 22.9387 18.4821 23.7265V24.2172C18.4821 25.2321 17.6273 26.109 16.3325 26.7888C13.5553 28.2467 8.78741 28.8989 7.85444 28.8989C7.20774 28.8989 6.62275 28.7236 6.15135 28.3179C5.48232 27.7415 5.02734 26.6716 5.02734 24.8718C5.02734 22.1888 6.37655 19.562 9.10387 17.3841C13.101 14.192 20.0959 11.9537 30.109 11.9537C30.1143 11.9537 30.1195 11.9537 30.1241 11.9543C38.7755 12.3663 44.8158 13.5421 48.7636 15.5332C52.8028 17.5703 54.691 20.4556 54.972 24.2483C54.9727 24.2563 54.9727 24.2638 54.9727 24.2718C54.9727 26.2072 54.6345 27.2864 53.9924 27.849C53.5427 28.2444 52.9354 28.4081 52.1456 28.4081C48.9895 28.4081 45.2078 27.4456 43.2217 26.109C42.2795 25.4746 41.7366 24.7384 41.7366 23.9989V23.9885C41.7654 23.1156 42.009 22.5766 42.271 22.0169L42.2861 21.9847ZM47.1249 39.635C46.8242 37.8869 46.3955 35.9561 43.8494 33.2806C38.8576 28.6736 37.8636 24.785 37.8636 20.3993C37.8636 19.6051 37.8944 18.911 38.0323 18.3639C38.1498 17.8973 38.3468 17.5295 38.6462 17.2732C38.9488 17.0146 39.3598 16.8629 39.9271 16.8629C40.2015 16.8629 41.9362 17.0451 43.2795 17.7732C44.2387 18.2926 44.9911 19.0857 44.9911 20.2355C44.9911 20.9337 44.7088 21.6193 44.4179 22.2738C44.3946 22.3262 44.3712 22.3784 44.348 22.4304C44.1185 22.9426 43.8999 23.4306 43.8999 23.8903C43.8999 24.1333 43.9761 24.4195 44.2177 24.6235C45.6036 25.6855 49.0033 26.413 51.405 26.6807C51.9204 26.6796 52.3084 26.6353 52.5625 26.3986C52.8231 26.1555 52.9183 25.7297 52.9183 25.0355C52.9183 24.5069 52.8651 23.8196 52.7063 22.9703C51.8521 19.3672 48.1682 17.2123 44.0004 15.8837C37.6121 13.8472 30.0492 13.7903 29.2364 13.7903C22.3669 13.7903 15.7285 15.2378 11.5187 18.0145C8.78285 19.8189 7.08168 22.1841 7.08168 25.0901C7.08168 25.9216 7.20578 26.4865 7.53602 26.7986C7.73299 26.9847 8.00351 27.0629 8.34558 27.0629C8.42042 27.0629 12.4464 26.4555 14.8559 25.2878C15.349 25.0488 15.7732 24.7879 16.0719 24.4994C16.3207 24.2598 16.4822 24.0069 16.4822 23.7265L16.4822 23.7191C16.4823 23.6411 16.4823 23.5619 16.4435 23.4455C16.3655 23.2111 16.258 22.9678 16.1435 22.7085C15.8457 22.034 15.5 21.2512 15.5 20.2355C15.5 19.7189 15.9045 18.9989 16.5853 18.3409C17.5445 17.4129 19.0329 16.59 20.4544 16.59C21.6979 16.59 22.2454 17.5215 22.2454 19.6356C22.2454 20.4602 22.191 21.4497 22.0813 22.5962C21.8415 27.6827 19.0038 30.4963 16.3755 33.1022C15.9677 33.5066 15.5649 33.9059 15.1777 34.308C14.0103 35.582 12.7399 37.6502 12.2613 40.3487C12.0623 42.1881 11.7452 42.8812 11.4478 43.4265C11.42 43.4774 11.3923 43.5269 11.3649 43.576C11.1267 44.0024 10.9072 44.3952 10.7912 45.4033C10.7925 45.6475 10.8175 45.8228 10.9068 45.9446C10.9895 46.0561 11.1261 46.1043 11.3119 46.1405C11.658 46.2085 12.1413 46.2085 12.7947 46.2084L44.7271 46.2083C44.7337 46.2083 44.7403 46.2083 44.7462 46.2089C46.0554 46.2871 47.0901 46.2302 47.7965 45.9751C48.3861 45.7619 48.7184 45.4033 48.7184 44.8355C48.7184 44.4367 48.5608 43.892 48.2154 43.2489C47.543 42.0923 47.36 41.0161 47.1656 39.8731C47.1521 39.7941 47.1386 39.7147 47.1249 39.635Z" fill="white"/>
</svg>
