<svg width="157" height="156" viewBox="0 0 157 156" fill="none" xmlns="http://www.w3.org/2000/svg">
<path d="M63.9527 142.57C73.1886 148.491 81.5988 152.968 89.1834 156C96.8914 150.397 104.401 143.803 111.713 136.219C122.251 133.762 131.872 130.67 140.574 126.942C142.18 118.096 142.863 107.959 142.623 96.528C148.582 87.0447 153.375 77.7734 157 68.7143C152.113 61.6591 145.799 54.3661 138.056 46.8351C135.864 35.9736 132.754 26.3349 128.728 17.9189C120.104 15.5651 110.31 14.3807 99.3472 14.3659C89.8472 7.97886 80.5756 3.19023 71.5325 0C62.8541 4.95682 54.1758 11.9808 45.4974 21.0721C35.4672 23.2811 25.7768 25.9431 16.4262 29.0581C14.8754 38.3748 14.3577 49.0687 14.8729 61.1396C9.35715 69.7753 4.39953 78.4906 0 87.2857C5.61236 95.1395 13.0048 103.247 22.1773 111.609C24.5987 123.093 27.5062 132.793 30.9 140.709C41.2413 142.344 52.2588 142.964 63.9527 142.57Z" fill="white"/>
</svg>
