<svg width="184" height="32" viewBox="0 0 184 32" fill="none" xmlns="http://www.w3.org/2000/svg">
<path d="M8.1258 24V3.602H12.8378V24H8.1258ZM5.1498 24L4.9638 23.008C5.41846 22.7187 5.9558 22.4603 6.5758 22.233C7.1958 21.985 7.77446 21.7577 8.3118 21.551L8.3428 24H5.1498ZM11.6598 24L11.7528 21.799L16.0308 22.419L15.9998 24H11.6598ZM1.2438 9.957C1.14046 9.461 1.04746 8.903 0.964797 8.283C0.902797 7.64233 0.85113 7.012 0.809797 6.392C0.768464 5.772 0.737464 5.19333 0.716797 4.656C0.716797 4.11867 0.72713 3.70533 0.747797 3.416L4.3748 4.315L3.7238 9.957H1.2438ZM1.2748 6.268L0.747797 3.416C2.2358 3.45733 3.6308 3.48833 4.9328 3.509C6.2348 3.52967 7.48513 3.55033 8.6838 3.571C9.90313 3.571 11.1121 3.571 12.3108 3.571C13.5095 3.55033 14.7495 3.52967 16.0308 3.509C17.3328 3.48833 18.7175 3.45733 20.1848 3.416L19.6578 6.268L10.4818 5.555L1.2748 6.268ZM17.2088 9.957L16.5578 4.315L20.1848 3.416C20.2261 3.70533 20.2365 4.11867 20.2158 4.656C20.1951 5.19333 20.1641 5.772 20.1228 6.392C20.0815 7.012 20.0195 7.64233 19.9368 8.283C19.8748 8.903 19.7921 9.461 19.6888 9.957H17.2088Z" fill="black"/>
<path d="M22.3938 24V10.174L25.3388 8.686L26.8888 10.05V24H22.3938ZM20.1308 24L20.0378 22.946C20.5545 22.636 21.1435 22.3673 21.8048 22.14C22.4868 21.892 23.0861 21.706 23.6028 21.582L23.2618 24H20.1308ZM24.7808 24L25.3078 21.179C25.9278 21.303 26.5891 21.4787 27.2918 21.706C28.0151 21.9127 28.6248 22.171 29.1208 22.481L28.9968 24H24.7808ZM20.0688 11.259L19.8518 9.771C20.6578 9.461 21.5361 9.213 22.4868 9.027C23.4581 8.841 24.4088 8.72733 25.3388 8.686L25.4628 10.422L23.4478 11.662L20.0688 11.259ZM24.8738 6.702C24.2745 6.43333 23.6751 6.07167 23.0758 5.617C22.4971 5.16233 22.0115 4.687 21.6188 4.191C21.9495 3.52967 22.3421 2.90967 22.7968 2.331C23.2721 1.75233 23.7681 1.277 24.2848 0.904999C24.8841 1.215 25.4628 1.618 26.0208 2.114C26.5788 2.61 27.0335 3.11633 27.3848 3.633C27.1161 4.21167 26.7545 4.78 26.2998 5.338C25.8451 5.87533 25.3698 6.33 24.8738 6.702Z" fill="black"/>
<path d="M42.0921 24.496C41.7408 24.4753 41.3688 24.3513 40.9761 24.124C40.5834 23.8967 40.2114 23.5867 39.8601 23.194C39.5294 22.7807 39.2711 22.3363 39.0851 21.861L38.7751 21.582V14.111C38.7751 13.1397 38.6408 12.4267 38.3721 11.972C38.1241 11.4967 37.7728 11.1557 37.3181 10.949C36.9254 10.9697 36.5121 11.0213 36.0781 11.104C35.6441 11.166 35.2824 11.2487 34.9931 11.352L34.4351 14.7L31.8311 14.793C31.5831 14.1523 31.3971 13.4497 31.2731 12.685C31.1698 11.8997 31.1388 11.1453 31.1801 10.422C31.7794 10.174 32.4408 9.93633 33.1641 9.709C33.8874 9.48167 34.6108 9.28533 35.3341 9.12C36.0574 8.934 36.7291 8.78933 37.3491 8.686C37.9898 8.58267 38.5064 8.531 38.8991 8.531C39.4364 8.531 39.9531 8.624 40.4491 8.81C40.9451 8.996 41.4101 9.26467 41.8441 9.616C42.2781 9.94667 42.6398 10.329 42.9291 10.763C43.0738 11.011 43.1668 11.3623 43.2081 11.817C43.2701 12.251 43.3011 12.964 43.3011 13.956V20.59C43.3011 20.7967 43.3631 20.9723 43.4871 21.117C43.6318 21.241 43.8281 21.303 44.0761 21.303C44.3034 21.303 44.5411 21.2823 44.7891 21.241C45.0371 21.1997 45.3058 21.1583 45.5951 21.117L45.8741 22.512L42.0921 24.496ZM35.8921 24.403C34.6934 24.5683 33.6911 24.4547 32.8851 24.062C32.0791 23.69 31.4694 23.1837 31.0561 22.543C30.6428 21.8817 30.4361 21.2203 30.4361 20.559C30.4361 19.939 30.6221 19.3087 30.9941 18.668C31.3868 18.0067 32.0068 17.459 32.8541 17.025L39.7051 16.839L39.6431 18.699H38.8991C38.4444 18.6577 37.9794 18.6577 37.5041 18.699C37.0494 18.7197 36.6258 18.792 36.2331 18.916C35.8611 19.0193 35.5511 19.1847 35.3031 19.412C35.0551 19.6393 34.9311 19.9493 34.9311 20.342C34.9311 20.5693 34.9828 20.8173 35.0861 21.086C35.2101 21.334 35.3754 21.5407 35.5821 21.706C36.0368 21.6853 36.5018 21.6233 36.9771 21.52C37.4731 21.396 37.9381 21.2513 38.3721 21.086C38.8061 20.9207 39.1574 20.7863 39.4261 20.683L39.7051 21.985L35.8921 24.403Z" fill="black"/>
<path d="M52.9167 31.471C52.152 31.471 51.3873 31.3883 50.6227 31.223C49.8787 31.0577 49.1967 30.789 48.5767 30.417C47.9567 30.045 47.4607 29.5593 47.0887 28.96C46.7167 28.3813 46.5203 27.6683 46.4997 26.821L51.3047 22.512L54.0637 22.45C53.3197 22.8427 52.648 23.2663 52.0487 23.721C51.4493 24.155 50.974 24.5787 50.6227 24.992C50.2713 25.426 50.0957 25.8393 50.0957 26.232C50.0957 26.8107 50.4263 27.2447 51.0877 27.534C51.7697 27.844 52.586 27.999 53.5367 27.999C54.26 27.999 54.9833 27.906 55.7067 27.72C56.4507 27.5547 57.1327 27.2963 57.7527 26.945C58.3727 26.5937 58.848 26.1597 59.1787 25.643C58.414 25.3123 57.422 25.0023 56.2027 24.713C55.004 24.4237 53.6917 24.186 52.2657 24C50.8397 23.814 49.4033 23.7003 47.9567 23.659L47.3367 21.675C47.812 21.1583 48.3183 20.6623 48.8557 20.187C49.393 19.691 49.951 19.2467 50.5297 18.854C51.129 18.4407 51.7077 18.11 52.2657 17.862L54.0327 18.358C53.5367 18.6887 53.0407 19.0503 52.5447 19.443C52.0487 19.815 51.6353 20.1767 51.3047 20.528C52.1313 20.5487 53.0097 20.6107 53.9397 20.714C54.8903 20.7967 55.841 20.931 56.7917 21.117C57.7423 21.303 58.662 21.4993 59.5507 21.706C60.4393 21.9127 61.2453 22.14 61.9687 22.388C62.2787 23.318 62.351 24.2273 62.1857 25.116C62.041 26.0047 61.6897 26.8313 61.1317 27.596C60.5943 28.3607 59.902 29.0323 59.0547 29.611C58.2073 30.2103 57.2567 30.665 56.2027 30.975C55.1693 31.3057 54.074 31.471 52.9167 31.471ZM53.9397 19.195C52.555 19.195 51.3357 18.9677 50.2817 18.513C49.2483 18.0377 48.432 17.4073 47.8327 16.622C47.254 15.816 46.9647 14.9067 46.9647 13.894C46.9647 12.8607 47.2643 11.941 47.8637 11.135C48.4837 10.3083 49.331 9.65733 50.4057 9.182C51.4803 8.70667 52.6893 8.469 54.0327 8.469C55.3347 8.469 56.5127 8.69633 57.5667 9.151C58.6207 9.60567 59.4577 10.236 60.0777 11.042C60.6977 11.848 61.0077 12.7883 61.0077 13.863C61.0077 14.8963 60.6977 15.816 60.0777 16.622C59.4577 17.428 58.6103 18.0583 57.5357 18.513C56.4817 18.9677 55.283 19.195 53.9397 19.195ZM55.4277 16.963C55.841 16.6323 56.1407 16.2087 56.3267 15.692C56.5127 15.1753 56.6057 14.6587 56.6057 14.142C56.6057 13.6047 56.492 13.088 56.2647 12.592C56.058 12.0753 55.7583 11.6517 55.3657 11.321C54.973 10.9697 54.508 10.7527 53.9707 10.67C53.454 10.5667 52.8857 10.6597 52.2657 10.949C51.9557 11.259 51.7283 11.6723 51.5837 12.189C51.4597 12.7057 51.3977 13.2327 51.3977 13.77C51.3977 14.514 51.5527 15.1857 51.8627 15.785C52.1727 16.3637 52.6273 16.777 53.2267 17.025C53.826 17.2523 54.5597 17.2317 55.4277 16.963ZM58.0007 12.561C57.918 11.879 57.9387 11.2177 58.0627 10.577C58.1867 9.91567 58.4243 9.31633 58.7757 8.779C59.127 8.221 59.592 7.76633 60.1707 7.415C60.77 7.06367 61.4933 6.857 62.3407 6.795L63.1157 10.794C61.3797 10.6287 59.9123 11.042 58.7137 12.034L58.0007 12.561Z" fill="black"/>
<path d="M71.104 24.62C69.7607 24.62 68.5103 24.2997 67.353 23.659C66.1957 22.9977 65.2553 22.0677 64.532 20.869C63.8293 19.6497 63.478 18.203 63.478 16.529C63.478 14.8343 63.8293 13.398 64.532 12.22C65.2553 11.042 66.1853 10.1533 67.322 9.554C68.4587 8.934 69.6883 8.624 71.011 8.624C72.3337 8.624 73.553 8.934 74.669 9.554C75.8057 10.174 76.715 11.0833 77.397 12.282C78.079 13.4807 78.42 14.948 78.42 16.684C78.42 18.3993 78.079 19.846 77.397 21.024C76.7357 22.202 75.847 23.101 74.731 23.721C73.6357 24.3203 72.4267 24.62 71.104 24.62ZM71.321 22.078C71.6723 22.078 72.034 22.0263 72.406 21.923C72.7987 21.6337 73.0983 21.2307 73.305 20.714C73.5117 20.1973 73.646 19.6187 73.708 18.978C73.7907 18.3167 73.832 17.676 73.832 17.056C73.832 16.002 73.7287 15.041 73.522 14.173C73.336 13.2843 73.0157 12.5817 72.561 12.065C72.1063 11.5277 71.5173 11.259 70.794 11.259C70.484 11.259 70.1843 11.3003 69.895 11.383C69.6057 11.4657 69.368 11.569 69.182 11.693C68.81 12.189 68.531 12.871 68.345 13.739C68.1797 14.5863 68.097 15.4957 68.097 16.467C68.097 17.459 68.2003 18.389 68.407 19.257C68.6343 20.1043 68.9857 20.7863 69.461 21.303C69.9363 21.8197 70.5563 22.078 71.321 22.078Z" fill="black"/>
<path d="M94.4872 14.266V12.344H96.7812C97.8559 12.344 98.7032 12.189 99.3232 11.879C99.9639 11.5483 100.429 11.135 100.718 10.639C101.028 10.143 101.183 9.62633 101.183 9.089C101.183 8.36567 100.956 7.67333 100.501 7.012C100.047 6.35067 99.4575 5.93733 98.7342 5.772L95.0762 6.268L88.4732 3.602C89.1759 3.56067 89.9509 3.52967 90.7982 3.509C91.6455 3.46767 92.5032 3.43667 93.3712 3.416C94.2392 3.39533 95.0865 3.385 95.9132 3.385C96.7399 3.36433 97.4839 3.354 98.1452 3.354C99.9432 3.354 101.421 3.61233 102.578 4.129C103.736 4.625 104.583 5.276 105.12 6.082C105.678 6.888 105.957 7.725 105.957 8.593C105.957 9.29567 105.782 9.99833 105.43 10.701C105.1 11.4037 104.573 12.003 103.849 12.499C103.147 12.9743 102.227 13.243 101.09 13.305L97.0292 14.018L94.4872 14.266ZM88.1942 24L88.0082 23.008C88.4629 22.7187 88.9485 22.4603 89.4652 22.233C90.0025 21.985 90.5399 21.7577 91.0772 21.551L91.1082 24H88.1942ZM90.6432 24V3.633H95.3552V24H90.6432ZM94.6112 24L94.7042 21.303L97.8352 21.613C98.7859 21.6957 99.5609 21.582 100.16 21.272C100.78 20.962 101.235 20.5383 101.524 20.001C101.814 19.443 101.958 18.8747 101.958 18.296C101.958 17.676 101.803 17.0663 101.493 16.467C101.183 15.8677 100.718 15.3717 100.098 14.979C99.4989 14.5863 98.7652 14.39 97.8972 14.39H94.7042L95.2312 13.584L99.3232 13.088C100.997 12.9433 102.392 13.1087 103.508 13.584C104.645 14.0593 105.503 14.7207 106.081 15.568C106.66 16.4153 106.949 17.3453 106.949 18.358C106.949 19.3087 106.66 20.218 106.081 21.086C105.503 21.9333 104.583 22.636 103.322 23.194C102.082 23.7313 100.439 24 98.3932 24H94.6112ZM91.9452 5.617L88.4422 5.183L88.4732 3.602H91.9452V5.617Z" fill="black"/>
<path d="M115.969 24.62C114.626 24.62 113.376 24.2997 112.218 23.659C111.061 22.9977 110.121 22.0677 109.397 20.869C108.695 19.6497 108.343 18.203 108.343 16.529C108.343 14.8343 108.695 13.398 109.397 12.22C110.121 11.042 111.051 10.1533 112.187 9.554C113.324 8.934 114.554 8.624 115.876 8.624C117.199 8.624 118.418 8.934 119.534 9.554C120.671 10.174 121.58 11.0833 122.262 12.282C122.944 13.4807 123.285 14.948 123.285 16.684C123.285 18.3993 122.944 19.846 122.262 21.024C121.601 22.202 120.712 23.101 119.596 23.721C118.501 24.3203 117.292 24.62 115.969 24.62ZM116.186 22.078C116.538 22.078 116.899 22.0263 117.271 21.923C117.664 21.6337 117.964 21.2307 118.17 20.714C118.377 20.1973 118.511 19.6187 118.573 18.978C118.656 18.3167 118.697 17.676 118.697 17.056C118.697 16.002 118.594 15.041 118.387 14.173C118.201 13.2843 117.881 12.5817 117.426 12.065C116.972 11.5277 116.383 11.259 115.659 11.259C115.349 11.259 115.05 11.3003 114.76 11.383C114.471 11.4657 114.233 11.569 114.047 11.693C113.675 12.189 113.396 12.871 113.21 13.739C113.045 14.5863 112.962 15.4957 112.962 16.467C112.962 17.459 113.066 18.389 113.272 19.257C113.5 20.1043 113.851 20.7863 114.326 21.303C114.802 21.8197 115.422 22.078 116.186 22.078Z" fill="black"/>
<path d="M126.746 24V10.174L129.691 8.686L131.241 10.143V24H126.746ZM129.815 17.211L129.133 14.762L134.372 9.151C135.096 8.86167 135.809 8.76867 136.511 8.872C137.214 8.95467 137.813 9.19233 138.309 9.585C138.33 9.97767 138.32 10.4323 138.278 10.949C138.237 11.4657 138.175 12.0133 138.092 12.592C138.03 13.15 137.927 13.6977 137.782 14.235C137.658 14.7723 137.524 15.258 137.379 15.692H134.899L134.341 12.158C133.825 12.4887 133.308 12.8813 132.791 13.336C132.295 13.7907 131.789 14.3383 131.272 14.979C130.776 15.599 130.291 16.343 129.815 17.211ZM124.421 11.259L124.204 9.771C125.01 9.461 125.889 9.213 126.839 9.027C127.811 8.841 128.761 8.72733 129.691 8.686L129.815 10.422L127.8 11.662L124.421 11.259ZM124.545 24L124.452 22.946C124.969 22.636 125.558 22.3673 126.219 22.14C126.901 21.892 127.501 21.706 128.017 21.582L127.676 24H124.545ZM130.094 24L130.621 21.303C131.035 21.365 131.479 21.458 131.954 21.582C132.43 21.6853 132.895 21.8197 133.349 21.985C133.825 22.1297 134.228 22.295 134.558 22.481L134.434 24H130.094Z" fill="black"/>
<path d="M145.553 31.471C144.789 31.471 144.024 31.3883 143.259 31.223C142.515 31.0577 141.833 30.789 141.213 30.417C140.593 30.045 140.097 29.5593 139.725 28.96C139.353 28.3813 139.157 27.6683 139.136 26.821L143.941 22.512L146.7 22.45C145.956 22.8427 145.285 23.2663 144.685 23.721C144.086 24.155 143.611 24.5787 143.259 24.992C142.908 25.426 142.732 25.8393 142.732 26.232C142.732 26.8107 143.063 27.2447 143.724 27.534C144.406 27.844 145.223 27.999 146.173 27.999C146.897 27.999 147.62 27.906 148.343 27.72C149.087 27.5547 149.769 27.2963 150.389 26.945C151.009 26.5937 151.485 26.1597 151.815 25.643C151.051 25.3123 150.059 25.0023 148.839 24.713C147.641 24.4237 146.328 24.186 144.902 24C143.476 23.814 142.04 23.7003 140.593 23.659L139.973 21.675C140.449 21.1583 140.955 20.6623 141.492 20.187C142.03 19.691 142.588 19.2467 143.166 18.854C143.766 18.4407 144.344 18.11 144.902 17.862L146.669 18.358C146.173 18.6887 145.677 19.0503 145.181 19.443C144.685 19.815 144.272 20.1767 143.941 20.528C144.768 20.5487 145.646 20.6107 146.576 20.714C147.527 20.7967 148.478 20.931 149.428 21.117C150.379 21.303 151.299 21.4993 152.187 21.706C153.076 21.9127 153.882 22.14 154.605 22.388C154.915 23.318 154.988 24.2273 154.822 25.116C154.678 26.0047 154.326 26.8313 153.768 27.596C153.231 28.3607 152.539 29.0323 151.691 29.611C150.844 30.2103 149.893 30.665 148.839 30.975C147.806 31.3057 146.711 31.471 145.553 31.471ZM146.576 19.195C145.192 19.195 143.972 18.9677 142.918 18.513C141.885 18.0377 141.069 17.4073 140.469 16.622C139.891 15.816 139.601 14.9067 139.601 13.894C139.601 12.8607 139.901 11.941 140.5 11.135C141.12 10.3083 141.968 9.65733 143.042 9.182C144.117 8.70667 145.326 8.469 146.669 8.469C147.971 8.469 149.149 8.69633 150.203 9.151C151.257 9.60567 152.094 10.236 152.714 11.042C153.334 11.848 153.644 12.7883 153.644 13.863C153.644 14.8963 153.334 15.816 152.714 16.622C152.094 17.428 151.247 18.0583 150.172 18.513C149.118 18.9677 147.92 19.195 146.576 19.195ZM148.064 16.963C148.478 16.6323 148.777 16.2087 148.963 15.692C149.149 15.1753 149.242 14.6587 149.242 14.142C149.242 13.6047 149.129 13.088 148.901 12.592C148.695 12.0753 148.395 11.6517 148.002 11.321C147.61 10.9697 147.145 10.7527 146.607 10.67C146.091 10.5667 145.522 10.6597 144.902 10.949C144.592 11.259 144.365 11.6723 144.22 12.189C144.096 12.7057 144.034 13.2327 144.034 13.77C144.034 14.514 144.189 15.1857 144.499 15.785C144.809 16.3637 145.264 16.777 145.863 17.025C146.463 17.2523 147.196 17.2317 148.064 16.963ZM150.637 12.561C150.555 11.879 150.575 11.2177 150.699 10.577C150.823 9.91567 151.061 9.31633 151.412 8.779C151.764 8.221 152.229 7.76633 152.807 7.415C153.407 7.06367 154.13 6.857 154.977 6.795L155.752 10.794C154.016 10.6287 152.549 11.042 151.35 12.034L150.637 12.561Z" fill="black"/>
<path d="M164.919 24.403C163.658 24.527 162.49 24.4237 161.416 24.093C160.341 23.7623 159.401 23.256 158.595 22.574C157.809 21.892 157.2 21.0653 156.766 20.094C156.332 19.102 156.115 18.017 156.115 16.839C156.115 15.6817 156.311 14.607 156.704 13.615C157.117 12.6023 157.665 11.724 158.347 10.98C159.049 10.236 159.866 9.65733 160.796 9.244C161.726 8.83067 162.718 8.624 163.772 8.624C164.557 8.624 165.322 8.748 166.066 8.996C166.83 9.244 167.523 9.62633 168.143 10.143C168.763 10.6597 169.248 11.3107 169.6 12.096C169.951 12.8607 170.127 13.77 170.127 14.824L166.004 15.475C166.107 14.7103 166.024 13.987 165.756 13.305C165.508 12.6023 165.115 12.0443 164.578 11.631C164.04 11.197 163.41 10.98 162.687 10.98C162.149 11.29 161.715 11.7343 161.385 12.313C161.054 12.8917 160.806 13.522 160.641 14.204C160.496 14.886 160.424 15.5473 160.424 16.188C160.424 17.304 160.63 18.2443 161.044 19.009C161.457 19.7737 162.025 20.3627 162.749 20.776C163.472 21.1687 164.278 21.365 165.167 21.365C165.807 21.365 166.448 21.272 167.089 21.086C167.729 20.8793 168.411 20.6003 169.135 20.249L169.786 21.892L164.919 24.403ZM168.329 16.622L159.401 16.529L159.153 14.483L168.267 13.987L170.127 14.824L168.329 16.622Z" fill="black"/>
<path d="M177.454 24.62C176.545 24.62 175.563 24.4857 174.509 24.217C173.476 23.9483 172.412 23.535 171.316 22.977L172.866 19.35C173.693 19.9493 174.602 20.5073 175.594 21.024C176.586 21.5407 177.599 21.9437 178.632 22.233C178.86 22.047 179.025 21.8403 179.128 21.613C179.232 21.365 179.283 21.1067 179.283 20.838C179.283 20.3627 179.097 19.9597 178.725 19.629C178.374 19.2777 177.919 18.9573 177.361 18.668C176.803 18.3787 176.194 18.0893 175.532 17.8C174.892 17.49 174.292 17.149 173.734 16.777C173.176 16.3843 172.711 15.909 172.339 15.351C171.988 14.793 171.812 14.1213 171.812 13.336C171.812 12.3647 172.102 11.5277 172.68 10.825C173.259 10.1223 174.034 9.585 175.005 9.213C175.997 8.82033 177.103 8.624 178.322 8.624C179.108 8.624 179.893 8.70667 180.678 8.872C181.484 9.03733 182.208 9.28533 182.848 9.616L181.794 12.251C181.133 11.7757 180.358 11.414 179.469 11.166C178.581 10.918 177.775 10.8147 177.051 10.856C176.576 11.0213 176.256 11.2383 176.09 11.507C175.946 11.7757 175.873 12.0443 175.873 12.313C175.873 12.7883 176.059 13.1913 176.431 13.522C176.803 13.8527 177.268 14.1627 177.826 14.452C178.405 14.7413 179.015 15.041 179.655 15.351C180.317 15.661 180.937 16.0123 181.515 16.405C182.094 16.7977 182.559 17.2833 182.91 17.862C183.282 18.42 183.468 19.102 183.468 19.908C183.468 21.272 182.931 22.3983 181.856 23.287C180.782 24.1757 179.314 24.62 177.454 24.62ZM179.996 13.832L178.849 9.554L182.848 9.616C182.91 10.3187 182.9 11.0317 182.817 11.755C182.735 12.4577 182.58 13.15 182.352 13.832H179.996Z" fill="black"/>
</svg>
